**ABCDEFGHIJKLMNOPQRSTUVWXYZabcdefghijklmnopqrstuvwxyz**************************
**PARASOLID !"#$%&'()*+,-./:;<=>?@[\]^_`{|}~0123456789**************************
**PART1;
MC=AMD64;
MC_MODEL=AMD64 Family 23 Model 113 Stepping 0, AuthenticAMD;
MC_ID=unknown;
OS=Windows_NT;
OS_RELEASE=unknown;
FRU=Parasolid Version 31.1, build 290,  3- 9-2020;
APPL=SOLIDWORKS 2020-2020196;
SITE=;
USER=unknown;
FORMAT=text;
GUISE=transmit;
KEY=P_Backplate_Control_Cavity;
FILE=P_Backplate_Control_Cavity.x_t;
DATE=Mon Nov 13 10:23:05 2023;
**PART2;
SCH=SCH_3101290_31100;
USFLD_SIZE=0;
**PART3;
**END_OF_HEADER*****************************************************************
T51 : TRANSMIT FILE created by modeller version 310129023 SCH_3101290_31100_1300
6222 0 12 34 CCCCCCI4 mesh1006 0 I8 polyline1008 0 CCCCCCCDI5 owner1040 0 CCCCCC
I13 boundary_mesh1006 0 I17 boundary_polyline1008 0 CCCA16 index_map_offset0 0 1
 dA9 index_map82 0 A17 node_id_index_map82 0 A20 schema_embedding_map82 0 A5 chi
ld12 0 A14 lowest_node_id0 0 1 dA16 mesh_offset_data206 0 Z1 977 2 3 0 0 0 0 0 0
 1e3 1e-8 0 4 0 1 0 1 1 5 6 7 8 0 0 9 10 11 0 0 0 0 0 0 0 81 255 2 2 948 12 1 13
 0 0 0 0 14 70 11 CI9 list_type0 0 1 uI10 notransmit0 0 1 lCCCDCCDI12 finger_ind
ex0 0 1 dI12 finger_block1012 0 CZ3 0 4 T1 0 0 8 20 1 15 15 13 255 5 456 0 1 0 1
6 0 0 17 0 51 255 6 434 0 18 19 0 0 --.153649556898131 .003175 .0600820712296482
 0 -1 0 .01739999999999965 0 0 -1 30 255 7 455 0 10 20 0 0 +-.145182770750242 .0
03175 .0448809682326312 0 -1 0 29 255 8 330 0 21 22 0 -.1362495568981316 0 .0600
820712296497 19 8 CCCCCCCA5 owner12 0 Z9 152 0 1 17 0 23 V0 16 255 10 371 0 ?24
 0 25 7 0 0 1 18 255 11 149 0 26 0 27 28 ?1 17 255 26 0 29 30 31 11 32 33 0 34 +
18 27 146 0 31 11 35 36 ?1 29 28 151 0 11 36 37 -.1362495568981316 .003175 .0600
820712296497 29 36 148 0 27 38 28 -.1362495568981314 .003175 .0657808894706851 2
9 37 350 0 39 28 40 -.145182770750242 0 .0448809682326312 18 39 307 0 41 42 0 37
 ?1 29 40 349 0 42 37 43 -.1794971200974705 0 .025768390824009 18 42 306 0 44 45
 39 40 ?1 29 43 348 0 45 40 46 -.187960968922476 0 .02356949406895315 18 45 305
 0 47 48 42 43 ?1 29 46 347 0 48 43 49 -.2473776045452565 0 .0270680416965429 18
 48 304 0 50 51 45 46 ?1 29 49 346 0 51 46 52 -.2620703260395485 0 .035142257781
95185 18 51 303 0 53 54 48 49 ?1 29 52 345 0 54 49 55 -.270933745897009 0 .05168
86323911874 18 54 302 0 56 57 51 52 ?1 29 55 344 0 57 52 58 -.2737282356085185 0
 .0579817014977483 18 57 301 0 59 60 54 55 ?1 29 58 343 0 60 55 61 -.27522563659
99285 0 .0650433829385949 18 60 300 0 62 63 57 58 ?1 29 61 342 0 63 58 64 -.2752
256365999285 0 .0881300102807068 18 63 299 0 65 66 60 61 ?1 29 64 341 0 66 61 67
 -.2578256365999285 0 .105530010280707 18 66 298 0 68 69 63 64 ?1 29 67 340 0 69
 64 70 -.193494425739186 0 .105530010280707 18 69 297 0 71 72 66 67 ?1 29 70 339
 0 72 67 73 -.18119076774654 0 .100433668273353 18 72 296 0 74 75 69 70 ?1 29 73
 338 0 75 70 76 -.1806808151325505 0 .0999237156593637 18 75 295 0 77 78 72 73 ?
1 29 76 337 0 78 73 79 -.1721248230801935 0 .0963797077117209 18 78 294 0 80 81
 75 76 ?1 29 79 336 0 81 76 82 -.1536495568981335 0 .0963797077117209 18 81 293
 0 83 84 78 79 ?1 29 82 335 0 84 79 85 -.136249556898131 0 .0789797077117217 18
 84 292 0 86 87 81 82 ?1 29 85 334 0 87 82 88 -.1362495568981314 0 .073280889470
6851 18 87 291 0 89 90 84 85 ?1 29 88 333 0 90 85 91 -.138999556898131 0 .073280
8894706851 18 90 290 0 92 93 87 88 ?1 29 91 332 0 93 88 22 -.138999556898131 0 .
0657808894706851 18 93 289 0 94 95 90 91 ?1 29 22 331 0 95 91 8 -.13624955689813
14 0 .0657808894706851 18 95 288 0 96 21 93 22 ?1 17 96 0 97 98 99 95 100 101 0
 102 +18 21 287 0 103 104 95 8 ?1 17 103 0 105 34 102 21 106 107 0 108 +18 104 8
9 0 109 110 21 111 ?1 17 109 0 112 24 113 104 114 115 0 30 -18 110 92 0 114 116
 104 117 ?1 29 111 91 0 104 0 117 -.145182770750242 .003175 .0448809682326312 29
 117 94 0 110 111 118 -.1794971200974705 .003175 .025768390824009 29 118 97 0 11
6 117 119 -.187960968922476 .003175 .02356949406895315 18 116 95 0 120 121 110 1
18 ?1 29 119 100 0 121 118 122 -.2473776045452565 .003175 .0270680416965429 18 1
21 98 0 123 124 116 119 ?1 29 122 103 0 124 119 125 -.2620703260395485 .003175 .
03514225778195185 18 124 101 0 126 127 121 122 ?1 29 125 106 0 127 122 128 -.270
933745897009 .003175 .0516886323911874 18 127 104 0 129 130 124 125 ?1 29 128 10
9 0 130 125 131 -.2737282356085185 .003175 .0579817014977483 18 130 107 0 132 13
3 127 128 ?1 29 131 112 0 133 128 134 -.2752256365999285 .003175 .06504338293859
49 18 133 110 0 135 136 130 131 ?1 29 134 115 0 136 131 137 -.2752256365999285 .
003175 .0881300102807068 18 136 113 0 138 139 133 134 ?1 29 137 118 0 139 134 14
0 -.2578256365999285 .003175 .105530010280707 18 139 116 0 141 142 136 137 ?1 29
 140 121 0 142 137 143 -.193494425739186 .003175 .105530010280707 18 142 119 0 1
44 145 139 140 ?1 29 143 124 0 145 140 146 -.18119076774654 .003175 .10043366827
3353 18 145 122 0 147 148 142 143 ?1 29 146 127 0 148 143 149 -.1806808151325505
 .003175 .0999237156593637 18 148 125 0 150 151 145 146 ?1 29 149 130 0 151 146
 152 -.1721248230801935 .003175 .0963797077117209 18 151 128 0 153 154 148 149 ?
1 29 152 133 0 154 149 155 -.1536495568981335 .003175 .0963797077117209 18 154 1
31 0 156 157 151 152 ?1 29 155 136 0 157 152 158 -.136249556898131 .003175 .0789
797077117217 18 157 134 0 159 160 154 155 ?1 29 158 139 0 160 155 161 -.13624955
68981314 .003175 .0732808894706851 18 160 137 0 162 163 157 158 ?1 29 161 142 0
 163 158 38 -.138999556898131 .003175 .0732808894706851 18 163 140 0 164 35 160
 161 ?1 29 38 145 0 35 161 36 -.138999556898131 .003175 .0657808894706851 18 35
 143 0 165 27 163 38 ?1 17 165 0 29 31 164 35 166 167 0 168 +15 255 29 4 0 30 16
 169 17 31 0 29 26 165 27 170 171 0 98 +17 164 0 29 165 162 163 172 173 0 174 +1
7 166 0 175 176 168 163 165 167 0 0 -16 167 77 0 ?165 171 173 177 0 0 1 17 168 0
 175 166 94 35 99 178 0 170 -15 175 376 0 94 179 0 17 94 0 175 168 176 93 180 18
1 0 99 +17 99 0 97 96 170 93 168 178 0 100 +16 178 353 0 ?99 182 183 184 0 0 1 1
7 170 0 97 99 98 35 31 171 0 0 -15 97 374 0 96 185 0 17 98 0 97 170 96 27 102 18
3 0 32 -16 171 81 0 ?31 33 167 186 0 0 1 16 33 85 0 ?26 187 171 188 0 0 1 30 186
 83 0 171 177 188 0 +-.138999556898131 .003175 .0657808894706851 1 0 0 30 177 79
 0 167 189 186 0 +-.138999556898131 .003175 .0657808894706851 0 0 -1 30 188 87 0
 33 186 190 0 +-.1362495568981314 .003175 .0657808894706851 -1948163597552175e-2
9 0 -1 31 255 190 329 0 191 188 192 0 +-.153649556898131 0 .0600820712296482 0 1
 0 0 0 1 .01739999999999965 16 191 283 0 ?193 194 195 190 0 0 1 30 192 328 0 194
 190 196 0 +-.145182770750242 0 .0448809682326312 -.873626609023966 0 -.48659690
5051077 16 194 279 0 ?44 197 191 192 0 0 1 31 196 327 0 197 192 198 0 +-.1879639
06245359 0 .04096949382102595 0 1 0 0 0 1 .0174 16 197 275 0 ?47 199 194 196 0 0
 1 30 198 326 0 199 196 200 0 +-.187960968922476 0 .02356949406895315 -.99827097
221074 0 .058779809811052 16 199 271 0 ?50 201 197 198 0 0 1 31 200 325 0 201 19
8 202 0 +-.2473805418681395 0 .0444680414486157 0 1 0 0 0 1 .0174 16 201 267 0 ?
53 203 199 200 0 0 1 31 202 324 0 203 200 204 0 +-.1547153360318825 0 .103296384
5319504 0 1 0 0 0 1 .127161624999844 16 203 263 0 ?56 205 201 202 0 0 1 30 204 3
23 0 205 202 206 0 +-.270933745897009 0 .0516886323911875 -.405843760968183 0 .9
13942471758043 16 205 259 0 ?59 207 203 204 0 0 1 31 206 322 0 207 204 208 0 +-.
2578256365999285 0 .0650433829385948 0 1 0 0 0 1 .0174 16 207 255 0 ?62 209 205
 206 0 0 1 30 208 321 0 209 206 210 0 +-.2752256365999285 0 .0650433829385949 0
 0 1 16 209 251 0 ?65 211 207 208 0 0 1 31 210 320 0 211 208 212 0 +-.2578256365
999285 0 .088130010280707 0 1 0 0 0 1 .0174 16 211 247 0 ?68 213 209 210 0 0 1 3
0 212 319 0 213 210 214 0 +-.2578256365999255 0 .105530010280707 1 0 -2157240260
54107e-30 16 213 243 0 ?71 215 211 212 0 0 1 31 214 318 0 215 212 216 0 +-.19349
4425739186 0 .088130010280707 0 1 0 0 0 1 .0174 16 215 239 0 ?74 217 213 214 0 0
 1 30 216 317 0 217 214 218 0 +-.18119076774654 0 .100433668273353 .707106781186
557 0 -.707106781186538 16 217 235 0 ?77 219 215 216 0 0 1 31 218 316 0 219 216
 220 0 +-.1721248230801935 0 .108479707711721 0 -1 0 0 0 1 .0121 16 219 231 0 ?8
0 221 217 218 0 0 1 30 220 315 0 221 218 222 0 +-.1721248230801935 0 .0963797077
117209 1 0 0 16 221 227 0 ?83 223 219 220 0 0 1 31 222 314 0 223 220 224 0 +-.15
3649556898131 0 .0789797077117209 0 1 0 0 0 1 .0174 16 223 223 0 ?86 225 221 222
 0 0 1 30 224 313 0 225 222 226 0 +-.1362495568981312 0 .0789797077117217 -19481
635975518e-27 0 -1 16 225 219 0 ?89 227 223 224 0 0 1 30 226 312 0 227 224 228 0
 +-.138999556898131 0 .0732808894706851 -1 0 0 16 227 215 0 ?92 181 225 226 0 0
 1 30 228 311 0 181 226 229 0 +-.138999556898131 0 .0657808894706851 0 0 -1 16 1
81 211 0 ?94 101 227 228 0 0 1 30 229 310 0 101 228 230 0 +-.138999556898131 0 .
0657808894706851 1 0 0 16 101 207 0 ?96 107 181 229 0 0 1 30 230 309 0 107 229 2
31 0 +-.1362495568981314 0 .0657808894706851 -1948163597552175e-29 0 -1 16 107 2
03 0 ?103 232 101 230 0 0 1 30 231 435 0 187 230 233 0 +-.1362495568981316 .0031
75 .0600820712296497 0 -1 0 16 187 351 0 ?108 183 33 231 0 0 1 30 233 436 0 183
 231 184 0 +-.1362495568981314 .003175 .0657808894706851 0 -1 0 16 183 352 0 ?10
2 178 187 233 0 0 1 30 184 437 0 178 233 234 0 +-.138999556898131 .003175 .06578
08894706851 0 -1 0 30 234 438 0 182 184 235 0 +-.138999556898131 .003175 .073280
8894706851 0 -1 0 16 182 354 0 ?176 236 178 234 0 0 1 30 235 439 0 236 234 237 0
 +-.1362495568981314 .003175 .0732808894706851 0 -1 0 16 236 355 0 ?238 239 182
 235 0 0 1 30 237 440 0 239 235 240 0 +-.136249556898131 .003175 .07897970771172
17 0 -1 0 16 239 356 0 ?241 242 236 237 0 0 1 30 240 441 0 242 237 243 0 +-.1536
495568981335 .003175 .0963797077117209 0 -1 0 16 242 357 0 ?244 245 239 240 0 0
 1 30 243 442 0 245 240 246 0 +-.1721248230801935 .003175 .0963797077117209 0 -1
 0 16 245 358 0 ?247 248 242 243 0 0 1 30 246 443 0 248 243 249 0 +-.18068081513
25505 .003175 .0999237156593637 0 -1 0 16 248 359 0 ?250 251 245 246 0 0 1 30 24
9 444 0 251 246 252 0 +-.18119076774654 .003175 .100433668273353 0 -1 0 16 251 3
60 0 ?253 254 248 249 0 0 1 30 252 445 0 254 249 255 0 +-.193494425739186 .00317
5 .105530010280707 0 -1 0 16 254 361 0 ?256 257 251 252 0 0 1 30 255 446 0 257 2
52 258 0 +-.2578256365999285 .003175 .105530010280707 0 -1 0 16 257 362 0 ?259 2
60 254 255 0 0 1 30 258 447 0 260 255 261 0 +-.2752256365999285 .003175 .0881300
102807068 0 -1 0 16 260 363 0 ?262 263 257 258 0 0 1 30 261 448 0 263 258 264 0
 +-.2752256365999285 .003175 .0650433829385949 0 -1 0 16 263 364 0 ?265 266 260
 261 0 0 1 30 264 449 0 266 261 267 0 +-.2737282356085185 .003175 .0579817014977
483 0 -1 0 16 266 365 0 ?268 269 263 264 0 0 1 30 267 450 0 269 264 270 0 +-.270
933745897009 .003175 .0516886323911874 0 -1 0 16 269 366 0 ?271 272 266 267 0 0
 1 30 270 451 0 272 267 273 0 +-.2620703260395485 .003175 .03514225778195185 0 -
1 0 16 272 367 0 ?274 275 269 270 0 0 1 30 273 452 0 275 270 276 0 +-.2473776045
452565 .003175 .0270680416965429 0 -1 0 16 275 368 0 ?277 278 272 273 0 0 1 30 2
76 453 0 278 273 20 0 +-.187960968922476 .003175 .02356949406895315 0 -1 0 16 27
8 369 0 ?279 25 275 276 0 0 1 30 20 454 0 25 276 7 0 +-.1794971200974705 .003175
 .025768390824009 0 -1 0 16 25 370 0 ?280 10 278 20 0 0 1 17 280 0 281 47 282 42
 113 25 0 283 +15 281 408 0 47 284 0 17 47 0 281 285 280 45 283 197 0 279 +17 28
2 0 281 280 285 110 120 286 0 0 -17 113 0 112 109 44 110 280 25 0 282 -17 283 0
 287 41 288 42 47 197 0 0 -15 287 202 0 289 290 291 17 41 0 287 289 283 39 44 19
4 0 24 -17 288 0 287 283 292 45 50 199 0 0 -17 292 0 287 288 293 48 53 201 0 0 -
17 50 0 294 295 279 48 288 199 0 277 +15 294 406 0 50 296 0 17 295 0 294 297 50
 121 277 275 0 298 -17 279 0 294 50 297 45 285 278 0 288 +17 277 0 299 53 298 48
 295 275 0 292 +15 299 404 0 53 300 0 17 53 0 299 301 277 51 292 201 0 274 +17 2
98 0 299 277 301 121 126 302 0 0 -17 301 0 299 298 53 124 274 272 0 303 -17 126
 0 29 129 123 124 298 302 0 301 +16 302 21 0 ?126 304 305 306 0 0 1 16 304 25 0
 ?129 307 302 308 0 0 1 16 305 17 0 ?123 302 286 309 0 0 1 31 306 23 0 302 309 3
08 0 +-.2473805418681395 .003175 .0444680414486157 0 1 0 0 0 1 .0174 30 309 19 0
 305 310 306 0 +-.187960968922476 .003175 .02356949406895315 -.99827097221074 0
 .058779809811052 31 308 27 0 304 306 311 0 +-.1547153360318825 .003175 .1032963
845319504 0 1 0 0 0 1 .127161624999844 30 311 31 0 307 308 312 0 +-.270933745897
009 .003175 .0516886323911875 -.405843760968183 0 .913942471758043 16 307 29 0 ?
132 313 304 311 0 0 1 31 312 35 0 313 311 314 0 +-.2578256365999285 .003175 .065
0433829385948 0 1 0 0 0 1 .0174 16 313 33 0 ?135 315 307 312 0 0 1 30 314 39 0 3
15 312 316 0 +-.2752256365999285 .003175 .0650433829385949 0 0 1 16 315 37 0 ?13
8 317 313 314 0 0 1 31 316 43 0 317 314 318 0 +-.2578256365999285 .003175 .08813
0010280707 0 1 0 0 0 1 .0174 16 317 41 0 ?141 319 315 316 0 0 1 30 318 47 0 319
 316 320 0 +-.2578256365999255 .003175 .105530010280707 1 0 -215724026054107e-30
 16 319 45 0 ?144 321 317 318 0 0 1 31 320 51 0 321 318 322 0 +-.193494425739186
 .003175 .088130010280707 0 1 0 0 0 1 .0174 16 321 49 0 ?147 323 319 320 0 0 1 3
0 322 55 0 323 320 324 0 +-.18119076774654 .003175 .100433668273353 .70710678118
6557 0 -.707106781186538 16 323 53 0 ?150 325 321 322 0 0 1 31 324 59 0 325 322
 326 0 +-.1721248230801935 .003175 .108479707711721 0 -1 0 0 0 1 .0121 16 325 57
 0 ?153 327 323 324 0 0 1 30 326 63 0 327 324 328 0 +-.1721248230801935 .003175
 .0963797077117209 1 0 0 16 327 61 0 ?156 329 325 326 0 0 1 31 328 67 0 329 326
 330 0 +-.153649556898131 .003175 .0789797077117209 0 1 0 0 0 1 .0174 16 329 65
 0 ?159 331 327 328 0 0 1 30 330 71 0 331 328 189 0 +-.1362495568981312 .003175
 .0789797077117217 -19481635975518e-27 0 -1 16 331 69 0 ?162 173 329 330 0 0 1 3
0 189 75 0 173 330 177 0 +-.138999556898131 .003175 .0732808894706851 -1 0 0 16
 173 73 0 ?164 167 331 189 0 0 1 17 162 0 29 164 159 160 332 331 0 333 +17 159 0
 29 162 156 157 334 329 0 335 +17 332 0 336 241 333 157 162 331 0 0 -17 333 0 33
6 332 89 160 238 236 0 172 -15 336 380 0 89 337 0 17 89 0 336 333 241 87 338 225
 0 238 +17 238 0 339 92 172 87 333 236 0 340 +17 172 0 339 238 174 160 164 173 0
 0 -15 339 378 0 92 341 0 17 174 0 339 172 92 163 176 182 0 166 -17 92 0 339 174
 238 90 340 227 0 176 +17 176 0 175 94 166 90 174 182 0 180 +17 180 0 287 340 10
0 90 94 181 0 0 -17 340 0 287 338 180 87 92 227 0 0 -17 100 0 287 180 106 93 96
 101 0 0 -17 106 0 287 100 289 95 103 107 0 0 -17 289 0 287 106 41 21 193 191 0
 0 -17 193 0 342 343 108 39 289 191 0 0 +15 342 412 0 193 18 0 17 343 0 342 344
 193 104 24 10 0 0 -17 108 0 342 193 344 21 34 187 0 289 +17 344 0 342 108 343 1
1 30 232 0 0 -17 34 0 105 32 103 11 108 187 0 344 -15 105 372 0 103 345 0 17 32
 0 105 102 34 27 26 33 0 0 -17 102 0 105 103 32 95 98 183 0 106 +14 255 345 373
 346 ?347 185 105 5 348 -0 0 347 185 23 81 1 346 949 349 345 350 0 0 351 352 14
 347 522 351 ?353 345 354 5 355 +0 0 353 345 23 14 185 375 356 ?345 179 97 5 357
 -0 0 345 179 23 50 255 348 414 0 345 358 357 0 +-.1362495568981314 .003175 .065
7808894706851 -1 0 194816359755218e-28 194816359755218e-28 0 1 13 23 153 0 0 0 0
 0 0 9 16 14 16 703 359 ?290 0 360 5 361 +0 0 290 0 23 81 1 359 952 349 16 362 0
 356 363 364 14 290 697 363 ?18 16 287 5 358 -0 0 18 16 23 15 360 662 0 365 16 3
66 50 361 3 0 16 355 358 0 +-.153649556898131 .003175 .0600820712296482 0 1 0 0
 0 1 51 355 535 0 347 367 361 0 --.1472076021446082 .003175 .0911272884977668 0
 -1 0 .001 0 0 -1 50 358 308 0 290 361 348 0 +-.153649556898131 0 .0600820712296
482 0 1 0 0 0 1 51 367 573 0 353 368 355 0 --.1417950276505978 .003175 .05311553
43339314 0 -1 0 .001 0 0 -1 14 353 560 369 ?370 347 371 5 367 +0 0 370 347 23 51
 368 611 0 370 372 367 0 --.187963906245359 .003175 .02721949382102595 0 -1 0 .0
01 0 0 -1 14 370 598 373 ?374 353 375 5 368 +0 0 374 353 23 51 372 649 0 374 376
 368 0 --.2530515298353325 .003175 .0319419728125291 0 -1 0 .001 0 0 -1 14 374 6
36 377 ?378 370 379 5 372 +0 0 378 370 23 51 376 687 0 378 380 372 0 --.26754835
4841244 .003175 .097852728522022 0 -1 0 .001 0 0 -1 14 378 674 381 ?382 374 383
 5 376 +0 0 382 374 23 51 380 725 0 382 0 376 0 --.20285468143992 .003175 .10188
0010280707 0 -1 0 .001 0 0 -1 14 382 712 384 ?0 378 385 5 380 +0 0 0 378 23 81 1
 384 958 349 382 386 0 381 387 388 15 385 715 0 389 382 390 17 389 0 385 389 389
 0 391 392 0 0 +15 390 716 0 393 382 0 17 393 0 390 393 393 0 394 395 0 0 -17 39
4 0 396 394 394 0 393 395 0 0 +16 395 706 0 ?394 392 0 397 0 0 1 16 392 709 0 ?3
89 398 395 399 0 0 1 31 397 728 0 395 399 400 0 +-.20285468143992 0 .10188001028
0707 0 1 0 0 0 1 .001 31 399 729 0 392 0 397 0 +-.20285468143992 .003175 .101880
010280707 0 1 0 0 0 1 .001 31 400 691 0 401 397 402 0 +-.267548354841244 .003175
 .097852728522022 0 1 0 0 0 1 .001 16 401 671 0 ?403 404 398 400 0 0 1 31 402 69
0 0 398 400 405 0 +-.267548354841244 0 .097852728522022 0 1 0 0 0 1 .001 16 398
 668 0 ?406 401 392 402 0 0 1 31 405 653 0 407 402 408 0 +-.2530515298353325 .00
3175 .0319419728125291 0 1 0 0 0 1 .001 16 407 633 0 ?409 410 404 405 0 0 1 31 4
08 652 0 404 405 411 0 +-.2530515298353325 0 .0319419728125291 0 1 0 0 0 1 .001
 16 404 630 0 ?412 407 401 408 0 0 1 31 411 615 0 413 408 414 0 +-.1879639062453
59 .003175 .02721949382102595 0 1 0 0 0 1 .001 16 413 595 0 ?415 416 410 411 0 0
 1 31 414 614 0 410 411 417 0 +-.187963906245359 0 .02721949382102595 0 1 0 0 0
 1 .001 16 410 592 0 ?418 413 407 414 0 0 1 31 417 577 0 419 414 420 0 +-.141795
0276505978 .003175 .0531155343339314 0 1 0 0 0 1 .001 16 419 557 0 ?421 422 416
 417 0 0 1 31 420 576 0 416 417 423 0 +-.1417950276505978 0 .0531155343339314 0
 1 0 0 0 1 .001 16 416 554 0 ?424 419 413 420 0 0 1 31 423 539 0 195 420 425 0 +
-.1472076021446082 .003175 .0911272884977668 0 1 0 0 0 1 .001 16 195 519 0 ?426
 191 422 423 0 0 1 31 425 538 0 422 423 427 0 +-.1472076021446082 0 .09112728849
77668 0 1 0 0 0 1 .001 16 422 516 0 ?428 195 419 425 0 0 1 31 427 7 0 232 425 42
9 0 +-.153649556898131 .003175 .0600820712296482 0 1 0 0 0 1 .01739999999999965
 16 232 5 0 ?30 115 107 427 0 0 1 30 429 11 0 115 427 310 0 +-.145182770750242 .
003175 .0448809682326312 -.873626609023966 0 -.486596905051077 16 115 9 0 ?114 2
86 232 429 0 0 1 31 310 15 0 286 429 309 0 +-.187963906245359 .003175 .040969493
82102595 0 1 0 0 0 1 .0174 16 286 13 0 ?120 305 115 310 0 0 1 17 120 0 29 123 11
4 116 282 286 0 285 +17 123 0 29 126 120 121 297 305 0 295 +17 114 0 29 120 30 1
10 109 115 0 113 +17 285 0 281 282 47 116 279 278 0 297 -17 297 0 294 279 295 11
6 123 305 0 0 -17 30 0 29 114 26 104 344 232 0 343 +17 428 0 291 428 428 0 430 4
22 0 0 +15 291 505 0 428 290 431 17 430 0 432 430 430 0 428 422 0 0 -15 432 526
 0 430 347 0 15 431 543 0 424 290 433 17 424 0 431 424 424 0 434 416 0 0 +15 433
 581 0 418 290 435 17 418 0 433 418 418 0 436 410 0 0 +15 435 619 0 412 290 437
 17 412 0 435 412 412 0 438 404 0 0 +15 437 657 0 406 290 396 17 406 0 437 406 4
06 0 439 398 0 0 +15 396 695 0 394 290 0 17 439 0 440 439 439 0 406 398 0 0 -15
 440 678 0 439 378 0 17 438 0 441 438 438 0 412 404 0 0 -15 441 640 0 438 374 0
 17 436 0 442 436 436 0 418 410 0 0 -15 442 602 0 436 370 0 17 434 0 443 434 434
 0 424 416 0 0 -15 443 564 0 434 353 0 17 426 0 354 426 426 0 444 195 0 0 +15 35
4 525 0 426 347 432 17 444 0 445 444 444 0 426 195 0 0 -15 445 510 0 444 16 29 1
7 421 0 371 421 421 0 446 419 0 0 +15 371 563 0 421 353 443 17 446 0 169 446 446
 0 421 419 0 0 -15 169 548 0 446 16 447 15 447 624 0 448 16 449 17 448 0 447 448
 448 0 409 407 0 0 -15 449 700 0 391 16 0 17 391 0 449 391 391 0 389 392 0 0 -17
 409 0 379 409 409 0 448 407 0 0 +15 379 639 0 409 374 441 17 415 0 375 415 415
 0 450 413 0 0 +15 375 601 0 415 370 442 17 450 0 366 450 450 0 415 413 0 0 -15
 366 586 0 450 16 445 17 403 0 383 403 403 0 365 401 0 0 +15 383 677 0 403 378 4
40 17 365 0 360 365 365 0 403 401 0 0 -80 255 1 349 451 452 9000 1 1 1 1 1 1 1 1
 0 FFFFTFTFFFFFFF1 81 1 386 888 453 382 0 384 454 0 455 81 1 381 957 349 378 454
 0 377 384 456 81 1 387 959 349 179 457 0 384 458 459 82 255 1 388 -130482060 14
 179 377 387 ?185 341 175 5 460 -0 0 185 341 23 81 1 457 880 453 179 0 387 461 4
62 463 81 1 458 960 349 341 461 0 387 464 465 82 1 459 -88604556 14 341 379 458
 ?179 337 339 5 466 -0 0 179 337 23 81 1 461 879 453 341 0 458 467 457 468 81 1
 464 961 349 337 467 0 458 469 470 82 1 465 -88342412 14 337 381 464 ?341 471 33
6 5 472 -0 0 341 471 23 81 1 467 878 453 337 0 464 473 461 474 81 1 469 962 349
 471 473 0 464 475 476 82 1 470 -88080268 14 471 383 469 ?337 477 478 5 479 -0 0
 337 477 23 81 1 473 877 453 471 0 469 480 467 481 81 1 475 963 349 477 480 0 46
9 482 483 82 1 476 -87818124 14 477 385 475 ?471 484 485 5 486 -0 0 471 484 23 8
1 1 480 876 453 477 0 475 487 473 488 81 1 482 964 349 484 487 0 475 489 490 82
 1 483 -87555980 14 484 387 482 ?477 491 492 5 493 -0 0 477 491 23 81 1 487 875
 453 484 0 482 494 480 495 81 1 489 965 349 491 494 0 482 496 497 82 1 490 -8729
3836 14 491 389 489 ?484 498 499 5 500 -0 0 484 498 23 81 1 494 874 453 491 0 48
9 501 487 502 81 1 496 966 349 498 501 0 489 503 504 82 1 497 -87031692 14 498 3
91 496 ?491 505 506 5 507 -0 0 491 505 23 81 1 501 873 453 498 0 496 508 494 509
 81 1 503 967 349 505 508 0 496 510 511 82 1 504 -86769548 14 505 393 503 ?498 5
12 513 5 514 -0 0 498 512 23 81 1 508 872 453 505 0 503 515 501 516 81 1 510 968
 349 512 515 0 503 517 518 82 1 511 -86507404 14 512 395 510 ?505 519 520 5 521
 -0 0 505 519 23 81 1 515 871 453 512 0 510 522 508 523 81 1 517 969 349 519 522
 0 510 524 525 82 1 518 -86245260 14 519 397 517 ?512 526 527 5 528 -0 0 512 526
 23 81 1 522 870 453 519 0 517 529 515 530 81 1 524 970 349 526 529 0 517 531 53
2 82 1 525 -85983116 14 526 399 524 ?519 533 534 5 535 -0 0 519 533 23 81 1 529
 869 453 526 0 524 536 522 537 81 1 531 971 349 533 536 0 524 538 539 82 1 532 -
85720972 14 533 401 531 ?526 540 541 5 542 -0 0 526 540 23 81 1 536 868 453 533
 0 531 543 529 544 81 1 538 972 349 540 543 0 531 545 546 82 1 539 -85458828 14
 540 403 538 ?533 300 547 5 548 -0 0 533 300 23 81 1 543 867 453 540 0 538 549 5
36 550 81 1 545 973 349 300 549 0 538 551 552 82 1 546 -85196684 14 300 405 545
 ?540 296 299 5 553 -0 0 540 296 23 81 1 549 866 453 300 0 545 554 543 555 81 1
 551 974 349 296 554 0 545 556 557 82 1 552 -84934540 14 296 407 551 ?300 284 29
4 5 558 -0 0 300 284 23 81 1 554 865 453 296 0 551 559 549 560 81 1 556 975 349
 284 559 0 551 561 562 82 1 557 -84672396 14 284 409 556 ?296 563 281 5 564 -0 0
 296 563 23 81 1 559 864 453 284 0 556 565 554 566 81 1 561 976 349 563 565 0 55
6 567 568 82 1 562 -84410252 14 563 411 561 ?284 18 112 5 19 -0 0 284 18 23 81 1
 565 863 453 563 0 561 569 559 570 81 1 567 977 349 18 569 0 561 0 571 82 1 568
 -84148108 14 18 413 567 ?563 290 342 5 6 -0 0 563 290 23 81 1 569 862 453 18 0
 567 572 565 573 82 1 571 -83885964 80 1 453 0 574 8001 0 0 0 0 3 5 0 0 0 FFFFTF
TFFFFFFF2 81 1 572 861 453 290 0 363 362 569 575 83 255 3 573 .2941176470588235
 .701960784313725 1 81 1 363 953 349 290 572 0 359 369 576 81 1 362 860 453 16 0
 359 0 572 577 83 3 575 .2941176470588235 .701960784313725 1 83 3 577 .294117647
0588235 .701960784313725 1 81 1 369 954 349 353 578 0 363 373 579 82 1 576 -7045
1084 81 1 578 884 453 353 0 369 580 581 582 81 1 373 955 349 370 581 0 369 377 5
83 82 1 579 -146734988 81 1 581 885 453 370 0 373 578 584 585 81 1 377 956 349 3
74 584 0 373 381 586 82 1 583 -142671756 81 1 584 886 453 374 0 377 581 454 587
 82 1 586 -138608524 81 1 454 887 453 378 0 381 584 386 588 83 3 587 .2941176470
588235 .701960784313725 1 83 3 588 .2941176470588235 .701960784313725 1 83 3 585
 .2941176470588235 .701960784313725 1 81 1 580 883 453 347 0 351 350 578 589 83
 3 582 .2941176470588235 .701960784313725 1 81 1 351 950 349 347 580 0 346 356 5
90 81 1 350 882 453 345 0 346 462 580 591 83 3 589 .2941176470588235 .7019607843
13725 1 81 1 462 881 453 185 0 356 457 350 592 83 3 591 .2941176470588235 .70196
0784313725 1 81 1 356 951 349 185 462 0 351 359 593 83 3 592 .2941176470588235 .
701960784313725 1 82 1 593 -88866700 82 1 590 -150863756 79 255 15 574 SDL/TYSA_
COLOUR83 3 570 .2941176470588235 .701960784313725 1 15 112 410 0 44 563 0 50 19
 433 0 563 564 6 0 +-.145182770750242 .003175 .0448809682326312 -.48659690505107
7 0 .873626609023966 .873626609023966 0 .486596905051077 51 564 432 0 284 558 19
 0 --.187963906245359 .003175 .04096949382102595 0 -1 0 .0174 0 0 -1 50 558 431
 0 296 553 564 0 +-.187960968922476 .003175 .02356949406895315 .058779809811052
 0 .99827097221074 .99827097221074 0 -.0587798098110521 51 553 430 0 300 548 558
 0 --.2473805418681395 .003175 .0444680414486157 0 -1 0 .0174 0 0 -1 51 548 429
 0 540 542 553 0 --.1547153360318825 .003175 .1032963845319504 0 -1 0 .127161624
999844 0 0 -1 50 542 428 0 533 535 548 0 +-.270933745897009 .003175 .05168863239
11875 .913942471758043 0 .405843760968183 .405843760968183 0 -.913942471758043 5
1 535 427 0 526 528 542 0 --.2578256365999285 .003175 .0650433829385948 0 -1 0 .
0174 0 0 -1 50 528 426 0 519 521 535 0 +-.2752256365999285 .003175 .065043382938
5949 1 0 0 0 0 -1 51 521 425 0 512 514 528 0 --.2578256365999285 .003175 .088130
010280707 0 -1 0 .0174 0 0 -1 50 514 424 0 505 507 521 0 +-.2578256365999255 .00
3175 .105530010280707 -215724026054107e-30 0 -1 -1 0 215724026054107e-30 51 507
 423 0 498 500 514 0 --.193494425739186 .003175 .088130010280707 0 -1 0 .0174 0
 0 -1 50 500 422 0 491 493 507 0 +-.18119076774654 .003175 .100433668273353 -.70
7106781186538 0 -.707106781186557 -.707106781186557 0 .707106781186538 51 493 42
1 0 484 486 500 0 +-.1721248230801935 .003175 .108479707711721 0 -1 0 .0121 0 0
 -1 50 486 420 0 477 479 493 0 +-.1721248230801935 .003175 .0963797077117209 0 0
 -1 -1 0 0 51 479 419 0 471 472 486 0 --.153649556898131 .003175 .07897970771172
09 0 -1 0 .0174 0 0 -1 50 472 418 0 337 466 479 0 +-.1362495568981312 .003175 .0
789797077117217 -1 0 19481635975518e-27 19481635975518e-27 0 1 50 466 417 0 341
 460 472 0 +-.138999556898131 .003175 .0732808894706851 0 0 1 1 0 0 50 460 416 0
 179 357 466 0 +-.138999556898131 .003175 .0657808894706851 -1 0 0 0 0 1 50 357
 415 0 185 348 460 0 +-.138999556898131 .003175 .0657808894706851 0 0 -1 -1 0 0
 17 44 0 112 113 24 42 41 194 0 280 +17 24 0 112 44 109 39 343 10 0 193 +83 3 56
6 .2941176470588235 .701960784313725 1 83 3 560 .2941176470588235 .7019607843137
25 1 83 3 555 .2941176470588235 .701960784313725 1 83 3 550 .2941176470588235 .7
01960784313725 1 15 547 402 0 56 540 0 17 56 0 547 594 274 54 293 203 0 271 +17
 594 0 547 303 56 127 271 269 0 595 -17 274 0 547 56 303 51 301 272 0 293 +17 29
3 0 287 292 596 51 56 203 0 0 -17 271 0 541 59 595 54 594 269 0 596 +15 541 400
 0 59 533 0 17 59 0 541 597 271 57 596 205 0 268 +17 595 0 541 271 597 127 132 3
07 0 0 -17 596 0 287 293 598 54 59 205 0 0 -17 598 0 287 596 599 57 62 207 0 0 -
17 599 0 287 598 600 60 65 209 0 0 -17 62 0 534 601 268 60 598 207 0 265 +15 534
 398 0 62 526 0 17 601 0 534 602 62 133 265 263 0 603 -17 268 0 534 62 602 57 59
7 266 0 598 +17 265 0 527 65 603 60 601 263 0 599 +15 527 396 0 65 519 0 17 65 0
 527 604 265 63 599 209 0 262 +17 603 0 527 265 604 133 138 315 0 0 -17 604 0 52
7 603 65 136 262 260 0 605 -17 138 0 29 141 135 136 603 315 0 604 +17 141 0 29 1
44 138 139 605 317 0 606 +17 135 0 29 138 132 133 602 313 0 601 +17 132 0 29 135
 129 130 595 307 0 597 +17 602 0 534 268 601 130 135 313 0 0 -17 129 0 29 132 12
6 127 303 304 0 594 +17 597 0 541 595 59 130 268 266 0 602 -17 303 0 547 274 594
 124 129 304 0 0 -17 144 0 29 147 141 142 607 319 0 608 +17 605 0 520 262 606 13
6 141 317 0 0 -17 606 0 520 605 68 139 259 257 0 607 -15 520 394 0 68 512 0 17 6
8 0 520 606 262 66 600 211 0 259 +17 259 0 513 71 607 66 606 257 0 609 +17 607 0
 513 259 608 139 144 319 0 0 -15 513 392 0 71 505 0 17 608 0 513 607 71 142 256
 254 0 610 -17 71 0 513 608 259 69 609 213 0 256 +17 256 0 506 74 610 69 608 254
 0 611 +17 610 0 506 256 612 142 147 321 0 0 -15 506 390 0 74 498 0 17 612 0 506
 610 74 145 253 251 0 613 -17 147 0 29 150 144 145 610 321 0 612 +17 150 0 29 15
3 147 148 613 323 0 614 +17 153 0 29 156 150 151 615 325 0 616 +17 613 0 499 253
 614 145 150 323 0 0 -17 614 0 499 613 77 148 250 248 0 615 -15 499 388 0 77 491
 0 17 77 0 499 614 253 75 617 217 0 250 +17 250 0 492 80 615 75 614 248 0 618 +1
7 615 0 492 250 616 148 153 325 0 0 -15 492 386 0 80 484 0 17 616 0 492 615 80 1
51 247 245 0 619 -17 80 0 492 616 250 78 618 219 0 247 +17 247 0 485 83 619 78 6
16 245 0 620 +17 619 0 485 247 621 151 156 327 0 0 -15 485 384 0 83 477 0 17 621
 0 485 619 83 154 244 242 0 334 -17 156 0 29 159 153 154 619 327 0 621 +17 83 0
 485 621 247 81 620 221 0 244 +17 244 0 478 86 334 81 621 242 0 622 +17 334 0 47
8 244 335 154 159 329 0 0 -15 478 382 0 86 471 0 17 335 0 478 334 86 157 241 239
 0 332 -17 86 0 478 335 244 84 622 223 0 241 +17 241 0 336 89 332 84 335 239 0 3
38 +17 338 0 287 622 340 84 89 225 0 0 -17 622 0 287 620 338 81 86 223 0 0 -17 6
20 0 287 618 622 78 83 221 0 0 -17 618 0 287 617 620 75 80 219 0 0 -17 617 0 287
 611 618 72 77 217 0 0 -17 611 0 287 609 617 69 74 215 0 0 -17 609 0 287 600 611
 66 71 213 0 0 -17 74 0 506 612 256 72 611 215 0 253 +17 253 0 499 77 613 72 612
 251 0 617 +17 600 0 287 599 609 63 68 211 0 0 -17 262 0 520 68 605 63 604 260 0
 600 +83 3 544 .2941176470588235 .701960784313725 1 83 3 537 .2941176470588235 .
701960784313725 1 83 3 530 .2941176470588235 .701960784313725 1 83 3 523 .294117
6470588235 .701960784313725 1 83 3 516 .2941176470588235 .701960784313725 1 83 3
 509 .2941176470588235 .701960784313725 1 83 3 502 .2941176470588235 .7019607843
13725 1 83 3 495 .2941176470588235 .701960784313725 1 83 3 488 .2941176470588235
 .701960784313725 1 83 3 481 .2941176470588235 .701960784313725 1 83 3 474 .2941
176470588235 .701960784313725 1 83 3 468 .2941176470588235 .701960784313725 1 83
 3 463 .2941176470588235 .701960784313725 1 82 1 456 -134545292 83 3 455 .294117
6470588235 .701960784313725 1 79 14 452 SWEntUnchanged82 1 364 -69926796 82 1 35
2 -89128844 19 17 457 0 1 0 9 5 S0 74 4 CI16 index_map_offset0 0 1 dCCZ20 15 8 0
 0 623 624 567 625 626 13 386 2 0 0 0 0 0 0 0 0 0 0 0 0 81 2 623 502 627 1 0 624
 0 0 0 628 81 2 624 793 629 1 623 625 0 0 0 630 81 1 625 823 631 1 624 626 0 0 6
32 81 2 626 855 633 1 625 13 0 0 0 634 81 2 13 858 635 1 626 2 0 0 0 0 80 2 635
 636 637 9000 0 0 0 0 3 5 0 0 0 FFTFFFFFFFFFFF9 1 79 16 637 BODY_RECIPE_200180 2
 633 638 639 9000 0 0 0 0 3 5 0 0 0 FFTFFFFFFFFFFF9 1 82 1 634 1 79 24 639 BODY_
IN_LIGHTWEIGHT_PERM80 1 631 640 641 9000 1 1 1 1 1 1 1 1 0 FFTFFFFFFFFFFF1 82 1
 632 25229541 79 10 641 BODY_MATCH80 2 629 642 643 9000 0 0 0 0 3 5 0 0 0 FFTFFF
FFFFFFFF9 1 82 1 630 40 79 30 643 LAST_BODY_MODIFYING_FEATURE_ID80 2 627 644 645
 9000 0 0 0 0 3 5 0 0 0 FFTFFFFFFFFFFT9 1 82 1 628 109 79 19 645 ENT_TIME_STAMP_
200180 2 12 646 647 9000 0 0 0 0 3 5 0 0 0 FFTFFFFFFFFFFF9 1 82 1 14 101 79 12 6
47 ATOM_ID_20011 0 
