**ABCDEFGHIJKLMNOPQRSTUVWXYZabcdefghijklmnopqrstuvwxyz**************************
**PARASOLID !"#$%&'()*+,-./:;<=>?@[\]^_`{|}~0123456789**************************
**PART1;
MC=AMD64;
MC_MODEL=AMD64 Family 23 Model 113 Stepping 0, AuthenticAMD;
MC_ID=unknown;
OS=Windows_NT;
OS_RELEASE=unknown;
FRU=Parasolid Version 31.1, build 290,  3- 9-2020;
APPL=SOLIDWORKS 2020-2020196;
SITE=;
USER=unknown;
FORMAT=text;
GUISE=transmit;
KEY=P_Backplate_Vibrato_Cavity;
FILE=P_Backplate_Vibrato_Cavity.x_t;
DATE=Mon Nov 13 10:22:25 2023;
**PART2;
SCH=SCH_3101290_31100;
USFLD_SIZE=0;
**PART3;
**END_OF_HEADER*****************************************************************
T51 : TRANSMIT FILE created by modeller version 310129023 SCH_3101290_31100_1300
6222 0 12 34 CCCCCCI4 mesh1006 0 I8 polyline1008 0 CCCCCCCDI5 owner1040 0 CCCCCC
I13 boundary_mesh1006 0 I17 boundary_polyline1008 0 CCCA16 index_map_offset0 0 1
 dA9 index_map82 0 A17 node_id_index_map82 0 A20 schema_embedding_map82 0 A5 chi
ld12 0 A14 lowest_node_id0 0 1 dA16 mesh_offset_data206 0 Z1 930 2 3 0 0 0 0 0 0
 1e3 1e-8 0 4 0 1 0 1 1 5 6 7 8 0 0 9 10 11 0 0 0 0 0 0 0 81 255 2 2 903 12 1 13
 0 0 0 0 14 70 11 CI9 list_type0 0 1 uI10 notransmit0 0 1 lCCCDCCDI12 finger_ind
ex0 0 1 dI12 finger_block1012 0 CZ3 0 4 T1 0 0 8 20 1 15 15 13 255 5 393 0 1 0 1
6 0 0 17 0 51 255 6 374 0 18 19 0 0 --.0510710662284196 .003175 .095119565731059
 0 -1 0 .01375 0 0 -1 30 255 7 392 0 10 20 0 0 +-.03732106622841955 .003175 .095
119565731059 0 -1 0 29 255 8 285 0 21 22 0 -.0510710662284196 0 .108869565731059
 19 8 CCCCCCCA5 owner12 0 Z9 131 0 1 17 0 23 V0 16 255 10 320 0 ?24 0 25 7 0 0 1
 18 255 11 128 0 26 0 27 28 ?1 17 255 26 0 29 30 31 11 32 33 0 34 +18 27 125 0 3
1 11 35 36 ?1 29 28 130 0 11 36 37 -.0510710662284196 .003175 .108869565731059 2
9 36 127 0 27 38 28 -.158994580507271 .003175 .108869565731059 29 37 302 0 39 28
 40 -.03732106622841955 0 .095119565731059 18 39 265 0 41 42 0 37 ?1 29 40 301 0
 42 37 43 -.03732106622841955 0 .0712195657305245 18 42 264 0 44 45 39 40 ?1 29
 43 300 0 45 40 46 -.04007106622841955 0 .0712195657305245 18 45 263 0 47 48 42
 43 ?1 29 46 299 0 48 43 49 -.04007106622841955 0 .0637195657305245 18 48 262 0
 50 51 45 46 ?1 29 49 298 0 51 46 52 -.03732106622841955 0 .0637195657305245 18
 51 261 0 53 54 48 49 ?1 29 52 297 0 54 49 55 -.03732106622841955 0 .03981956572
99899 18 54 260 0 56 57 51 52 ?1 29 55 296 0 57 52 58 -.0510710662284196 0 .0260
695657299899 18 57 259 0 59 60 54 55 ?1 29 58 295 0 60 55 61 -.121753952268483 0
 .0260695657299899 18 60 258 0 62 63 57 58 ?1 29 61 294 0 63 58 64 -.13080491906
76708 0 .0223205325291777 18 63 257 0 65 66 60 61 ?1 29 64 293 0 66 61 67 -.1366
286041081736 0 .01649684748867485 18 66 256 0 68 69 63 64 ?1 29 67 292 0 69 64 7
0 -.1463513223494888 0 .01246956572998986 18 69 255 0 71 72 66 67 ?1 29 70 291 0
 72 67 73 -.155714324386202 0 .0124695657299899 18 72 254 0 74 75 69 70 ?1 29 73
 290 0 75 70 76 -.165437042627517 0 .0164968474886749 18 75 253 0 77 78 72 73 ?1
 29 76 289 0 78 73 79 -.168717298748586 0 .019777103609744 18 78 252 0 80 81 75
 76 ?1 29 79 288 0 81 76 82 -.172744580507271 0 .0294998218510591 18 81 251 0 83
 84 78 79 ?1 29 82 287 0 84 79 22 -.172744580507271 0 .0951195657310591 18 84 25
0 0 85 86 81 82 ?1 29 22 286 0 86 82 8 -.158994580507271 0 .108869565731059 18 8
6 249 0 87 21 84 22 ?1 17 87 0 88 89 90 86 91 92 0 93 +18 21 248 0 94 95 86 8 ?1
 17 94 0 96 34 93 21 97 98 0 99 +18 95 77 0 100 101 21 102 ?1 17 100 0 103 24 10
4 95 105 106 0 30 -18 101 80 0 105 107 95 108 ?1 29 102 79 0 95 0 108 -.03732106
622841955 .003175 .095119565731059 29 108 82 0 101 102 109 -.03732106622841955 .
003175 .0712195657305245 29 109 85 0 107 108 110 -.04007106622841955 .003175 .07
12195657305245 18 107 83 0 111 112 101 109 ?1 29 110 88 0 112 109 113 -.04007106
622841955 .003175 .0637195657305245 18 112 86 0 114 115 107 110 ?1 29 113 91 0 1
15 110 116 -.03732106622841955 .003175 .0637195657305245 18 115 89 0 117 118 112
 113 ?1 29 116 94 0 118 113 119 -.03732106622841955 .003175 .0398195657299899 18
 118 92 0 120 121 115 116 ?1 29 119 97 0 121 116 122 -.0510710662284196 .003175
 .0260695657299899 18 121 95 0 123 124 118 119 ?1 29 122 100 0 124 119 125 -.121
753952268483 .003175 .0260695657299899 18 124 98 0 126 127 121 122 ?1 29 125 103
 0 127 122 128 -.1308049190676708 .003175 .0223205325291777 18 127 101 0 129 130
 124 125 ?1 29 128 106 0 130 125 131 -.1366286041081736 .003175 .016496847488674
85 18 130 104 0 132 133 127 128 ?1 29 131 109 0 133 128 134 -.1463513223494888 .
003175 .01246956572998986 18 133 107 0 135 136 130 131 ?1 29 134 112 0 136 131 1
37 -.155714324386202 .003175 .0124695657299899 18 136 110 0 138 139 133 134 ?1 2
9 137 115 0 139 134 140 -.165437042627517 .003175 .0164968474886749 18 139 113 0
 141 142 136 137 ?1 29 140 118 0 142 137 143 -.168717298748586 .003175 .01977710
3609744 18 142 116 0 144 145 139 140 ?1 29 143 121 0 145 140 38 -.17274458050727
1 .003175 .0294998218510591 18 145 119 0 146 35 142 143 ?1 29 38 124 0 35 143 36
 -.172744580507271 .003175 .0951195657310591 18 35 122 0 147 27 145 38 ?1 17 147
 0 29 31 146 35 148 149 0 150 +15 255 29 4 0 30 16 151 17 31 0 29 26 147 27 152
 153 0 89 +17 146 0 29 147 144 145 154 155 0 156 +17 148 0 157 158 150 145 147 1
49 0 0 -16 149 65 0 ?147 153 155 159 0 0 1 17 150 0 157 148 85 35 90 160 0 152 -
15 157 325 0 85 161 0 17 85 0 157 150 158 84 162 163 0 90 +17 90 0 88 87 152 84
 150 160 0 91 +16 160 305 0 ?90 164 165 166 0 0 1 17 152 0 88 90 89 35 31 153 0
 0 -15 88 323 0 87 167 0 17 89 0 88 152 87 27 93 165 0 32 -16 153 69 0 ?31 33 14
9 168 0 0 1 16 33 73 0 ?26 169 153 170 0 0 1 31 255 168 71 0 153 159 170 0 +-.15
8994580507271 .003175 .0951195657310591 0 1 0 0 0 1 .01375 30 159 67 0 149 171 1
68 0 +-.172744580507271 .003175 .0294998218510591 -4229759821432105e-31 0 1 30 1
70 75 0 33 168 172 0 +-.158994580507271 .003175 .108869565731059 1 0 0 31 172 28
4 0 173 170 174 0 +-.0510710662284196 0 .095119565731059 0 1 0 0 0 1 .01375 16 1
73 244 0 ?175 176 177 172 0 0 1 30 174 283 0 176 172 178 0 +-.03732106622841955
 0 .095119565731059 0 0 -1 16 176 240 0 ?44 179 173 174 0 0 1 30 178 282 0 179 1
74 180 0 +-.04007106622841955 0 .0712195657305245 -1 0 0 16 179 236 0 ?47 181 17
6 178 0 0 1 30 180 281 0 181 178 182 0 +-.04007106622841955 0 .0712195657305245
 0 0 -1 16 181 232 0 ?50 183 179 180 0 0 1 30 182 280 0 183 180 184 0 +-.0400710
6622841955 0 .0637195657305245 1 0 0 16 183 228 0 ?53 185 181 182 0 0 1 30 184 2
79 0 185 182 186 0 +-.03732106622841955 0 .0637195657305245 0 0 -1 16 185 224 0
 ?56 187 183 184 0 0 1 31 186 278 0 187 184 188 0 +-.0510710662284196 0 .0398195
657299899 0 1 0 0 0 1 .01375 16 187 220 0 ?59 189 185 186 0 0 1 30 188 277 0 189
 186 190 0 +-.0510710662284196 0 .0260695657299899 -1 0 0 16 189 216 0 ?62 191 1
87 188 0 0 1 31 190 276 0 191 188 192 0 +-.121753952268483 0 .0132695657299899 0
 -1 0 0 0 1 .0128 16 191 212 0 ?65 193 189 190 0 0 1 30 192 275 0 193 190 194 0
 +-.1308049190676708 0 .0223205325291777 -.707106781186548 0 -.707106781186548 1
6 193 208 0 ?68 195 191 192 0 0 1 31 194 274 0 195 192 196 0 +-.1463513223494886
 0 .0262195657299899 0 1 0 0 0 1 .01375 16 195 204 0 ?71 197 193 194 0 0 1 30 19
6 273 0 197 194 198 0 +-.1463513223494888 0 .0124695657299899 -1 0 -741097126402
319e-30 16 197 200 0 ?74 199 195 196 0 0 1 31 198 272 0 199 196 200 0 +-.1557143
24386202 0 .0262195657299899 0 1 0 0 0 1 .01375 16 199 196 0 ?77 201 197 198 0 0
 1 30 200 271 0 201 198 202 0 +-.165437042627517 0 .0164968474886749 -.707106781
186547 0 .707106781186548 16 201 192 0 ?80 203 199 200 0 0 1 31 202 270 0 203 20
0 204 0 +-.158994580507271 0 .02949982185105905 0 1 0 0 0 1 .01375 16 203 188 0
 ?83 163 201 202 0 0 1 30 204 269 0 163 202 205 0 +-.172744580507271 0 .02949982
18510591 -4229759821432105e-31 0 1 16 163 184 0 ?85 92 203 204 0 0 1 31 205 268
 0 92 204 206 0 +-.158994580507271 0 .0951195657310591 0 1 0 0 0 1 .01375 16 92
 180 0 ?87 98 163 205 0 0 1 30 206 267 0 98 205 207 0 +-.158994580507271 0 .1088
69565731059 1 0 0 16 98 176 0 ?94 208 92 206 0 0 1 30 207 375 0 169 206 209 0 +-
.0510710662284196 .003175 .108869565731059 0 -1 0 16 169 303 0 ?99 165 33 207 0
 0 1 30 209 376 0 165 207 166 0 +-.158994580507271 .003175 .108869565731059 0 -1
 0 16 165 304 0 ?93 160 169 209 0 0 1 30 166 377 0 160 209 210 0 +-.172744580507
271 .003175 .0951195657310591 0 -1 0 30 210 378 0 164 166 211 0 +-.1727445805072
71 .003175 .0294998218510591 0 -1 0 16 164 306 0 ?158 212 160 210 0 0 1 30 211 3
79 0 212 210 213 0 +-.168717298748586 .003175 .019777103609744 0 -1 0 16 212 307
 0 ?214 215 164 211 0 0 1 30 213 380 0 215 211 216 0 +-.165437042627517 .003175
 .0164968474886749 0 -1 0 16 215 308 0 ?217 218 212 213 0 0 1 30 216 381 0 218 2
13 219 0 +-.155714324386202 .003175 .0124695657299899 0 -1 0 16 218 309 0 ?220 2
21 215 216 0 0 1 30 219 382 0 221 216 222 0 +-.1463513223494888 .003175 .0124695
6572998986 0 -1 0 16 221 310 0 ?223 224 218 219 0 0 1 30 222 383 0 224 219 225 0
 +-.1366286041081736 .003175 .01649684748867485 0 -1 0 16 224 311 0 ?226 227 221
 222 0 0 1 30 225 384 0 227 222 228 0 +-.1308049190676708 .003175 .0223205325291
777 0 -1 0 16 227 312 0 ?229 230 224 225 0 0 1 30 228 385 0 230 225 231 0 +-.121
753952268483 .003175 .0260695657299899 0 -1 0 16 230 313 0 ?232 233 227 228 0 0
 1 30 231 386 0 233 228 234 0 +-.0510710662284196 .003175 .0260695657299899 0 -1
 0 16 233 314 0 ?235 236 230 231 0 0 1 30 234 387 0 236 231 237 0 +-.03732106622
841955 .003175 .0398195657299899 0 -1 0 16 236 315 0 ?238 239 233 234 0 0 1 30 2
37 388 0 239 234 240 0 +-.03732106622841955 .003175 .0637195657305245 0 -1 0 16
 239 316 0 ?241 242 236 237 0 0 1 30 240 389 0 242 237 243 0 +-.0400710662284195
5 .003175 .0637195657305245 0 -1 0 16 242 317 0 ?244 245 239 240 0 0 1 30 243 39
0 0 245 240 20 0 +-.04007106622841955 .003175 .0712195657305245 0 -1 0 16 245 31
8 0 ?246 25 242 243 0 0 1 30 20 391 0 25 243 7 0 +-.03732106622841955 .003175 .0
712195657305245 0 -1 0 16 25 319 0 ?247 10 245 20 0 0 1 17 247 0 248 47 249 42 1
04 25 0 250 +15 248 351 0 47 251 0 17 47 0 248 252 247 45 250 179 0 246 +17 249
 0 248 247 252 101 111 253 0 0 -17 104 0 103 100 44 101 247 25 0 249 -17 250 0 2
54 41 255 42 47 179 0 0 -15 254 175 0 256 257 258 17 41 0 254 256 250 39 44 176
 0 24 -17 255 0 254 250 259 45 50 181 0 0 -17 259 0 254 255 260 48 53 183 0 0 -1
7 50 0 261 262 246 48 255 181 0 244 +15 261 349 0 50 263 0 17 262 0 261 264 50 1
12 244 242 0 265 -17 246 0 261 50 264 45 252 245 0 255 +17 244 0 266 53 265 48 2
62 242 0 259 +15 266 347 0 53 267 0 17 53 0 266 268 244 51 259 183 0 241 +17 265
 0 266 244 268 112 117 269 0 0 -17 268 0 266 265 53 115 241 239 0 270 -17 117 0
 29 120 114 115 265 269 0 268 +16 269 21 0 ?117 271 272 273 0 0 1 16 271 25 0 ?1
20 274 269 275 0 0 1 16 272 17 0 ?114 269 253 276 0 0 1 30 273 23 0 269 276 275
 0 +-.04007106622841955 .003175 .0637195657305245 1 0 0 30 276 19 0 272 277 273
 0 +-.04007106622841955 .003175 .0712195657305245 0 0 -1 30 275 27 0 271 273 278
 0 +-.03732106622841955 .003175 .0637195657305245 0 0 -1 31 278 31 0 274 275 279
 0 +-.0510710662284196 .003175 .0398195657299899 0 1 0 0 0 1 .01375 16 274 29 0
 ?123 280 271 278 0 0 1 30 279 35 0 280 278 281 0 +-.0510710662284196 .003175 .0
260695657299899 -1 0 0 16 280 33 0 ?126 282 274 279 0 0 1 31 281 39 0 282 279 28
3 0 +-.121753952268483 .003175 .0132695657299899 0 -1 0 0 0 1 .0128 16 282 37 0
 ?129 284 280 281 0 0 1 30 283 43 0 284 281 285 0 +-.1308049190676708 .003175 .0
223205325291777 -.707106781186548 0 -.707106781186548 16 284 41 0 ?132 286 282 2
83 0 0 1 31 285 47 0 286 283 287 0 +-.1463513223494886 .003175 .0262195657299899
 0 1 0 0 0 1 .01375 16 286 45 0 ?135 288 284 285 0 0 1 30 287 51 0 288 285 289 0
 +-.1463513223494888 .003175 .0124695657299899 -1 0 -741097126402319e-30 16 288
 49 0 ?138 290 286 287 0 0 1 31 289 55 0 290 287 291 0 +-.155714324386202 .00317
5 .0262195657299899 0 1 0 0 0 1 .01375 16 290 53 0 ?141 292 288 289 0 0 1 30 291
 59 0 292 289 171 0 +-.165437042627517 .003175 .0164968474886749 -.7071067811865
47 0 .707106781186548 16 292 57 0 ?144 155 290 291 0 0 1 31 171 63 0 155 291 159
 0 +-.158994580507271 .003175 .02949982185105905 0 1 0 0 0 1 .01375 16 155 61 0
 ?146 149 292 171 0 0 1 17 144 0 29 146 141 142 293 292 0 294 +17 141 0 29 144 1
38 139 295 290 0 296 +17 293 0 297 217 294 139 144 292 0 0 -17 294 0 297 293 80
 142 214 212 0 154 -15 297 329 0 80 298 0 17 80 0 297 294 217 78 299 201 0 214 +
17 214 0 300 83 154 78 294 212 0 301 +17 154 0 300 214 156 142 146 155 0 0 -15 3
00 327 0 83 302 0 17 156 0 300 154 83 145 158 164 0 148 -17 83 0 300 156 214 81
 301 203 0 158 +17 158 0 157 85 148 81 156 164 0 162 +17 162 0 254 301 91 81 85
 163 0 0 -17 301 0 254 299 162 78 83 203 0 0 -17 91 0 254 162 97 84 87 92 0 0 -1
7 97 0 254 91 256 86 94 98 0 0 -17 256 0 254 97 41 21 175 173 0 0 -17 175 0 303
 304 99 39 256 173 0 0 +15 303 355 0 175 18 0 17 304 0 303 305 175 95 24 10 0 0
 -17 99 0 303 175 305 21 34 169 0 256 +17 305 0 303 99 304 11 30 208 0 0 -17 34
 0 96 32 94 11 99 169 0 305 -15 96 321 0 94 306 0 17 32 0 96 93 34 27 26 33 0 0
 -17 93 0 96 94 32 86 89 165 0 97 +14 255 306 322 307 ?308 167 96 5 309 -0 0 308
 167 23 81 1 307 904 310 306 311 0 0 312 313 14 308 453 312 ?314 306 315 5 316 +
0 0 314 306 23 14 167 324 317 ?306 161 88 5 318 -0 0 306 161 23 50 255 309 357 0
 306 319 318 0 +-.158994580507271 .003175 .108869565731059 0 0 -1 -1 0 0 13 23 1
32 0 0 0 0 0 0 9 16 14 16 672 320 ?257 0 321 5 322 +0 0 257 0 23 81 1 320 907 31
0 16 323 0 317 324 325 14 257 666 324 ?18 16 254 5 319 -0 0 18 16 23 15 321 631
 0 326 16 327 50 322 3 0 16 316 319 0 +-.0510710662284196 .003175 .0951195657310
59 0 1 0 0 0 1 51 316 466 0 308 328 322 0 --.169094580507271 .003175 .0631096937
905245 0 -1 0 .001 0 0 -1 50 319 266 0 257 322 309 0 +-.0510710662284196 0 .0951
19565731059 0 1 0 0 0 1 51 328 504 0 314 329 316 0 --.1510328233678455 .003175 .
0161195657299899 0 -1 0 .001 0 0 -1 14 314 491 330 ?331 308 332 5 328 +0 0 331 3
08 23 51 329 542 0 331 333 328 0 --.0960753925090768 .003175 .0297195657299899 0
 -1 0 .001 0 0 -1 14 331 529 334 ?335 314 336 5 329 +0 0 335 314 23 51 333 580 0
 335 337 329 0 --.0439292877381598 .003175 .0326777872402814 0 -1 0 .00099999999
9817027 0 0 -1 14 335 567 338 ?339 331 340 5 333 +0 0 339 331 23 51 337 618 0 33
9 341 333 0 --.0439292877381681 .003175 .1022613442202412 0 -1 0 .00099999999982
2488 0 0 -1 14 339 605 342 ?343 335 344 5 337 +0 0 343 335 23 51 341 656 0 343 3
45 337 0 --.0960753925090768 .003175 .10521956572999 0 -1 0 .001 0 0 -1 14 343 6
43 346 ?347 339 348 5 341 +0 0 347 339 23 51 345 694 0 347 0 341 0 --.1510328233
678455 .003175 .10521956572999 0 -1 0 .001 0 0 -1 14 347 681 349 ?0 343 350 5 34
5 +0 0 0 343 23 81 1 349 914 310 347 351 0 346 352 353 15 350 684 0 354 347 355
 17 354 0 350 354 354 0 356 357 0 0 +15 355 685 0 358 347 0 17 358 0 355 358 358
 0 359 360 0 0 -17 359 0 361 359 359 0 358 360 0 0 +16 360 675 0 ?359 357 0 362
 0 0 1 16 357 678 0 ?354 363 360 364 0 0 1 31 362 697 0 360 364 365 0 +-.1510328
233678455 0 .10521956572999 0 1 0 0 0 1 .001 31 364 698 0 357 0 362 0 +-.1510328
233678455 .003175 .10521956572999 0 1 0 0 0 1 .001 31 365 660 0 366 362 367 0 +-
.0960753925090768 .003175 .10521956572999 0 1 0 0 0 1 .001 16 366 640 0 ?368 369
 363 365 0 0 1 31 367 659 0 363 365 370 0 +-.0960753925090768 0 .10521956572999
 0 1 0 0 0 1 .001 16 363 637 0 ?371 366 357 367 0 0 1 31 370 622 0 372 367 373 0
 +-.0439292877381681 .003175 .1022613442202412 0 1 0 0 0 1 .000999999999822488 1
6 372 602 0 ?374 375 369 370 0 0 1 31 373 621 0 369 370 376 0 +-.043929287738168
1 0 .1022613442202412 0 1 0 0 0 1 .000999999999822488 16 369 599 0 ?377 372 366
 373 0 0 1 31 376 584 0 378 373 379 0 +-.0439292877381598 .003175 .0326777872402
814 0 1 0 0 0 1 .000999999999817027 16 378 564 0 ?380 381 375 376 0 0 1 31 379 5
83 0 375 376 382 0 +-.0439292877381598 0 .0326777872402814 0 1 0 0 0 1 .00099999
9999817027 16 375 561 0 ?383 378 372 379 0 0 1 31 382 546 0 384 379 385 0 +-.096
0753925090768 .003175 .0297195657299899 0 1 0 0 0 1 .001 16 384 526 0 ?386 387 3
81 382 0 0 1 31 385 545 0 381 382 388 0 +-.0960753925090768 0 .0297195657299899
 0 1 0 0 0 1 .001 16 381 523 0 ?389 384 378 385 0 0 1 31 388 508 0 390 385 391 0
 +-.1510328233678455 .003175 .0161195657299899 0 1 0 0 0 1 .001 16 390 488 0 ?39
2 393 387 388 0 0 1 31 391 507 0 387 388 394 0 +-.1510328233678455 0 .0161195657
299899 0 1 0 0 0 1 .001 16 387 485 0 ?395 390 384 391 0 0 1 31 394 470 0 177 391
 396 0 +-.169094580507271 .003175 .0631096937905245 0 1 0 0 0 1 .001 16 177 450
 0 ?397 173 393 394 0 0 1 31 396 469 0 393 394 398 0 +-.169094580507271 0 .06310
96937905245 0 1 0 0 0 1 .001 16 393 447 0 ?399 177 390 396 0 0 1 31 398 7 0 208
 396 400 0 +-.0510710662284196 .003175 .095119565731059 0 1 0 0 0 1 .01375 16 20
8 5 0 ?30 106 98 398 0 0 1 30 400 11 0 106 398 277 0 +-.03732106622841955 .00317
5 .095119565731059 0 0 -1 16 106 9 0 ?105 253 208 400 0 0 1 30 277 15 0 253 400
 276 0 +-.04007106622841955 .003175 .0712195657305245 -1 0 0 16 253 13 0 ?111 27
2 106 277 0 0 1 17 111 0 29 114 105 107 249 253 0 252 +17 114 0 29 117 111 112 2
64 272 0 262 +17 105 0 29 111 30 101 100 106 0 104 +17 252 0 248 249 47 107 246
 245 0 264 -17 264 0 261 246 262 107 114 272 0 0 -17 30 0 29 105 26 95 305 208 0
 304 +17 399 0 258 399 399 0 401 393 0 0 +15 258 436 0 399 257 402 17 401 0 403
 401 401 0 399 393 0 0 -15 403 457 0 401 308 0 15 402 474 0 395 257 404 17 395 0
 402 395 395 0 405 387 0 0 +15 404 512 0 389 257 406 17 389 0 404 389 389 0 407
 381 0 0 +15 406 550 0 383 257 408 17 383 0 406 383 383 0 409 375 0 0 +15 408 58
8 0 377 257 410 17 377 0 408 377 377 0 411 369 0 0 +15 410 626 0 371 257 361 17
 371 0 410 371 371 0 412 363 0 0 +15 361 664 0 359 257 0 17 412 0 413 412 412 0
 371 363 0 0 -15 413 647 0 412 343 0 17 411 0 414 411 411 0 377 369 0 0 -15 414
 609 0 411 339 0 17 409 0 415 409 409 0 383 375 0 0 -15 415 571 0 409 335 0 17 4
07 0 416 407 407 0 389 381 0 0 -15 416 533 0 407 331 0 17 405 0 417 405 405 0 39
5 387 0 0 -15 417 495 0 405 314 0 17 397 0 315 397 397 0 418 177 0 0 +15 315 456
 0 397 308 403 17 418 0 151 418 418 0 397 177 0 0 -15 151 441 0 418 16 419 15 41
9 517 0 420 16 421 17 420 0 419 420 420 0 386 384 0 0 -15 421 593 0 422 16 423 1
7 422 0 421 422 422 0 374 372 0 0 -15 423 669 0 356 16 0 17 356 0 423 356 356 0
 354 357 0 0 -17 374 0 344 374 374 0 422 372 0 0 +15 344 608 0 374 339 414 17 38
6 0 336 386 386 0 420 384 0 0 +15 336 532 0 386 331 416 17 392 0 332 392 392 0 4
24 390 0 0 +15 332 494 0 392 314 417 17 424 0 425 424 424 0 392 390 0 0 -15 425
 479 0 424 16 29 17 380 0 340 380 380 0 426 378 0 0 +15 340 570 0 380 335 415 17
 426 0 327 426 426 0 380 378 0 0 -15 327 555 0 426 16 425 17 368 0 348 368 368 0
 326 366 0 0 +15 348 646 0 368 343 413 17 326 0 321 326 326 0 368 366 0 0 -80 25
5 1 310 427 428 9000 1 1 1 1 1 1 1 1 0 FFFFTFTFFFFFFF1 81 1 351 847 429 347 0 34
9 430 0 431 81 1 346 913 310 343 430 0 342 349 432 81 1 352 915 310 161 433 0 34
9 434 435 82 255 1 353 -1075314560 14 161 326 352 ?167 302 157 5 436 -0 0 167 30
2 23 81 1 433 838 429 161 0 352 437 438 439 81 1 434 916 310 302 437 0 352 440 4
41 82 1 435 -1038942080 14 302 328 434 ?161 298 300 5 442 -0 0 161 298 23 81 1 4
37 837 429 302 0 434 443 433 444 81 1 440 917 310 298 443 0 434 445 446 82 1 441
 -1038679936 14 298 330 440 ?302 447 297 5 448 -0 0 302 447 23 81 1 443 836 429
 298 0 440 449 437 450 81 1 445 918 310 447 449 0 440 451 452 82 1 446 -10384177
92 14 447 332 445 ?298 453 454 5 455 -0 0 298 453 23 81 1 449 835 429 447 0 445
 456 443 457 81 1 451 919 310 453 456 0 445 458 459 82 1 452 -1038155648 14 453
 334 451 ?447 460 461 5 462 -0 0 447 460 23 81 1 456 834 429 453 0 451 463 449 4
64 81 1 458 920 310 460 463 0 451 465 466 82 1 459 -1037893504 14 460 336 458 ?4
53 467 468 5 469 -0 0 453 467 23 81 1 463 833 429 460 0 458 470 456 471 81 1 465
 921 310 467 470 0 458 472 473 82 1 466 -1037631360 14 467 338 465 ?460 474 475
 5 476 -0 0 460 474 23 81 1 470 832 429 467 0 465 477 463 478 81 1 472 922 310 4
74 477 0 465 479 480 82 1 473 -1037369216 14 474 340 472 ?467 481 482 5 483 -0 0
 467 481 23 81 1 477 831 429 474 0 472 484 470 485 81 1 479 923 310 481 484 0 47
2 486 487 82 1 480 -1037107072 14 481 342 479 ?474 488 489 5 490 -0 0 474 488 23
 81 1 484 830 429 481 0 479 491 477 492 81 1 486 924 310 488 491 0 479 493 494 8
2 1 487 -1036844928 14 488 344 486 ?481 495 496 5 497 -0 0 481 495 23 81 1 491 8
29 429 488 0 486 498 484 499 81 1 493 925 310 495 498 0 486 500 501 82 1 494 -10
36582784 14 495 346 493 ?488 267 502 5 503 -0 0 488 267 23 81 1 498 828 429 495
 0 493 504 491 505 81 1 500 926 310 267 504 0 493 506 507 82 1 501 -1036320640 1
4 267 348 500 ?495 263 266 5 508 -0 0 495 263 23 81 1 504 827 429 267 0 500 509
 498 510 81 1 506 927 310 263 509 0 500 511 512 82 1 507 -1036058496 14 263 350
 506 ?267 251 261 5 513 -0 0 267 251 23 81 1 509 826 429 263 0 506 514 504 515 8
1 1 511 928 310 251 514 0 506 516 517 82 1 512 -1035796352 14 251 352 511 ?263 5
18 248 5 519 -0 0 263 518 23 81 1 514 825 429 251 0 511 520 509 521 81 1 516 929
 310 518 520 0 511 522 523 82 1 517 -1035534208 14 518 354 516 ?251 18 103 5 19
 -0 0 251 18 23 81 1 520 824 429 518 0 516 524 514 525 81 1 522 930 310 18 524 0
 516 0 526 82 1 523 -1035272064 14 18 356 522 ?518 257 303 5 6 -0 0 518 257 23 8
1 1 524 823 429 18 0 522 527 520 528 82 1 526 -1035009920 80 1 429 0 529 8001 0
 0 0 0 3 5 0 0 0 FFFFTFTFFFFFFF2 81 1 527 822 429 257 0 324 323 524 530 83 255 3
 528 .2941176470588235 .701960784313725 1 81 1 324 908 310 257 527 0 320 330 531
 81 1 323 821 429 16 0 320 0 527 532 83 3 530 .2941176470588235 .701960784313725
 1 83 3 532 .2941176470588235 .701960784313725 1 81 1 330 909 310 314 533 0 324
 334 534 82 1 531 -1021050752 81 1 533 842 429 314 0 330 535 536 537 81 1 334 91
0 310 331 536 0 330 338 538 82 1 534 -1095630720 81 1 536 843 429 331 0 334 533
 539 540 81 1 338 911 310 335 539 0 334 342 541 82 1 538 -1091567488 81 1 539 84
4 429 335 0 338 536 542 543 81 1 342 912 310 339 542 0 338 346 544 82 1 541 -108
7504256 81 1 542 845 429 339 0 342 539 430 545 82 1 544 -1083441024 81 1 430 846
 429 343 0 346 542 351 546 83 3 545 .2941176470588235 .701960784313725 1 83 3 54
6 .2941176470588235 .701960784313725 1 83 3 543 .2941176470588235 .7019607843137
25 1 83 3 540 .2941176470588235 .701960784313725 1 81 1 535 841 429 308 0 312 31
1 533 547 83 3 537 .2941176470588235 .701960784313725 1 81 1 312 905 310 308 535
 0 307 317 548 81 1 311 840 429 306 0 307 438 535 549 83 3 547 .2941176470588235
 .701960784313725 1 81 1 438 839 429 167 0 317 433 311 550 83 3 549 .29411764705
88235 .701960784313725 1 81 1 317 906 310 167 438 0 312 320 551 83 3 550 .294117
6470588235 .701960784313725 1 82 1 551 -1039204224 82 1 548 -1099759488 79 255 1
5 529 SDL/TYSA_COLOUR83 3 525 .2941176470588235 .701960784313725 1 15 103 353 0
 44 518 0 50 19 373 0 518 519 6 0 +-.03732106622841955 .003175 .095119565731059
 -1 0 0 0 0 1 50 519 372 0 251 513 19 0 +-.04007106622841955 .003175 .0712195657
305245 0 0 1 1 0 0 50 513 371 0 263 508 519 0 +-.04007106622841955 .003175 .0712
195657305245 -1 0 0 0 0 1 50 508 370 0 267 503 513 0 +-.04007106622841955 .00317
5 .0637195657305245 0 0 -1 -1 0 0 50 503 369 0 495 497 508 0 +-.0373210662284195
5 .003175 .0637195657305245 -1 0 0 0 0 1 51 497 368 0 488 490 503 0 --.051071066
2284196 .003175 .0398195657299899 0 -1 0 .01375 0 0 -1 50 490 367 0 481 483 497
 0 +-.0510710662284196 .003175 .0260695657299899 0 0 1 1 0 0 51 483 366 0 474 47
6 490 0 +-.121753952268483 .003175 .0132695657299899 0 -1 0 .0128 0 0 -1 50 476
 365 0 467 469 483 0 +-.1308049190676708 .003175 .0223205325291777 -.70710678118
6548 0 .707106781186548 .707106781186548 0 .707106781186548 51 469 364 0 460 462
 476 0 --.1463513223494886 .003175 .0262195657299899 0 -1 0 .01375 0 0 -1 50 462
 363 0 453 455 469 0 +-.1463513223494888 .003175 .0124695657299899 -741097126402
319e-30 0 1 1 0 741097126402319e-30 51 455 362 0 447 448 462 0 --.15571432438620
2 .003175 .0262195657299899 0 -1 0 .01375 0 0 -1 50 448 361 0 298 442 455 0 +-.1
65437042627517 .003175 .0164968474886749 .707106781186548 0 .707106781186547 .70
7106781186547 0 -.707106781186548 51 442 360 0 302 436 448 0 --.158994580507271
 .003175 .02949982185105905 0 -1 0 .01375 0 0 -1 50 436 359 0 161 318 442 0 +-.1
72744580507271 .003175 .0294998218510591 1 0 4229759821432105e-31 42297598214321
05e-31 0 -1 51 318 358 0 167 309 436 0 --.158994580507271 .003175 .0951195657310
591 0 -1 0 .01375 0 0 -1 17 44 0 103 104 24 42 41 176 0 247 +17 24 0 103 44 100
 39 304 10 0 175 +83 3 521 .2941176470588235 .701960784313725 1 83 3 515 .294117
6470588235 .701960784313725 1 83 3 510 .2941176470588235 .701960784313725 1 83 3
 505 .2941176470588235 .701960784313725 1 15 502 345 0 56 495 0 17 56 0 502 552
 241 54 260 185 0 238 +17 552 0 502 270 56 118 238 236 0 553 -17 241 0 502 56 27
0 51 268 239 0 260 +17 260 0 254 259 554 51 56 185 0 0 -17 238 0 496 59 553 54 5
52 236 0 554 +15 496 343 0 59 488 0 17 59 0 496 555 238 57 554 187 0 235 +17 553
 0 496 238 555 118 123 274 0 0 -17 554 0 254 260 556 54 59 187 0 0 -17 556 0 254
 554 557 57 62 189 0 0 -17 557 0 254 556 558 60 65 191 0 0 -17 62 0 489 559 235
 60 556 189 0 232 +15 489 341 0 62 481 0 17 559 0 489 560 62 124 232 230 0 561 -
17 235 0 489 62 560 57 555 233 0 556 +17 232 0 482 65 561 60 559 230 0 557 +15 4
82 339 0 65 474 0 17 65 0 482 562 232 63 557 191 0 229 +17 561 0 482 232 562 124
 129 282 0 0 -17 562 0 482 561 65 127 229 227 0 563 -17 129 0 29 132 126 127 561
 282 0 562 +17 132 0 29 135 129 130 563 284 0 564 +17 126 0 29 129 123 124 560 2
80 0 559 +17 123 0 29 126 120 121 553 274 0 555 +17 560 0 489 235 559 121 126 28
0 0 0 -17 120 0 29 123 117 118 270 271 0 552 +17 555 0 496 553 59 121 235 233 0
 560 -17 270 0 502 241 552 115 120 271 0 0 -17 135 0 29 138 132 133 565 286 0 56
6 +17 563 0 475 229 564 127 132 284 0 0 -17 564 0 475 563 68 130 226 224 0 565 -
15 475 337 0 68 467 0 17 68 0 475 564 229 66 558 193 0 226 +17 226 0 468 71 565
 66 564 224 0 567 +17 565 0 468 226 566 130 135 286 0 0 -15 468 335 0 71 460 0 1
7 566 0 468 565 71 133 223 221 0 568 -17 71 0 468 566 226 69 567 195 0 223 +17 2
23 0 461 74 568 69 566 221 0 569 +17 568 0 461 223 570 133 138 288 0 0 -15 461 3
33 0 74 453 0 17 570 0 461 568 74 136 220 218 0 295 -17 138 0 29 141 135 136 568
 288 0 570 +17 74 0 461 570 223 72 569 197 0 220 +17 220 0 454 77 295 72 570 218
 0 571 +17 295 0 454 220 296 136 141 290 0 0 -15 454 331 0 77 447 0 17 296 0 454
 295 77 139 217 215 0 293 -17 77 0 454 296 220 75 571 199 0 217 +17 217 0 297 80
 293 75 296 215 0 299 +17 299 0 254 571 301 75 80 201 0 0 -17 571 0 254 569 299
 72 77 199 0 0 -17 569 0 254 567 571 69 74 197 0 0 -17 567 0 254 558 569 66 71 1
95 0 0 -17 558 0 254 557 567 63 68 193 0 0 -17 229 0 475 68 563 63 562 227 0 558
 +83 3 499 .2941176470588235 .701960784313725 1 83 3 492 .2941176470588235 .7019
60784313725 1 83 3 485 .2941176470588235 .701960784313725 1 83 3 478 .2941176470
588235 .701960784313725 1 83 3 471 .2941176470588235 .701960784313725 1 83 3 464
 .2941176470588235 .701960784313725 1 83 3 457 .2941176470588235 .70196078431372
5 1 83 3 450 .2941176470588235 .701960784313725 1 83 3 444 .2941176470588235 .70
1960784313725 1 83 3 439 .2941176470588235 .701960784313725 1 82 1 432 -10793777
92 83 3 431 .2941176470588235 .701960784313725 1 79 14 428 SWEntUnchanged82 1 32
5 -1020526464 82 1 313 -1039466368 19 17 394 0 1 0 9 5 S0 74 4 CI16 index_map_of
fset0 0 1 dCCZ20 15 8 0 0 572 573 522 574 575 13 351 2 0 0 0 0 0 0 0 0 0 0 0 0 8
1 2 572 433 576 1 0 573 0 0 0 577 81 2 573 758 578 1 572 574 0 0 0 579 81 1 574
 786 580 1 573 575 0 0 581 81 2 575 816 582 1 574 13 0 0 0 583 81 2 13 819 584 1
 575 2 0 0 0 0 80 2 584 585 586 9000 0 0 0 0 3 5 0 0 0 FFTFFFFFFFFFFF9 1 79 16 5
86 BODY_RECIPE_200180 2 582 587 588 9000 0 0 0 0 3 5 0 0 0 FFTFFFFFFFFFFF9 1 82
 1 583 1 79 24 588 BODY_IN_LIGHTWEIGHT_PERM80 1 580 589 590 9000 1 1 1 1 1 1 1 1
 0 FFTFFFFFFFFFFF1 82 1 581 23904383 79 10 590 BODY_MATCH80 2 578 591 592 9000 0
 0 0 0 3 5 0 0 0 FFTFFFFFFFFFFF9 1 82 1 579 32 79 30 592 LAST_BODY_MODIFYING_FEA
TURE_ID80 2 576 593 594 9000 0 0 0 0 3 5 0 0 0 FFTFFFFFFFFFFT9 1 82 1 577 121 79
 19 594 ENT_TIME_STAMP_200180 2 12 595 596 9000 0 0 0 0 3 5 0 0 0 FFTFFFFFFFFFFF
9 1 82 1 14 101 79 12 596 ATOM_ID_20011 0 
