999
DXF created by FretFind2D
0
SECTION
2
ENTITIES
0
LINE
8
2
62
4
10
1.85625
20
0
30
0
11
2.21875
21
25.5
31
0
0
LINE
8
2
62
4
10
1.57625
20
0
30
0
11
1.79375
21
25.5
31
0
0
LINE
8
2
62
4
10
1.2962500000000001
20
0
30
0
11
1.36875
21
25.5
31
0
0
LINE
8
2
62
4
10
1.0162499999999999
20
0
30
0
11
0.9437500000000001
21
25.5
31
0
0
LINE
8
2
62
4
10
0.7362500000000001
20
0
30
0
11
0.51875
21
25.5
31
0
0
LINE
8
2
62
4
10
0.45625000000000004
20
0
30
0
11
0.09375
21
25.5
31
0
0
LINE
8
2
62
4
10
1.95
20
0
30
0
11
2.3125
21
25.5
31
0
0
LINE
8
2
62
4
10
0.3624999999999998
20
0
30
0
11
0
21
25.5
31
0
0
LINE
8
2
62
4
10
1.97
20
0
30
0
11
1.69625
21
0
31
0
0
LINE
8
2
62
4
10
1.9903455616528862
20
1.431205026616818
30
0
11
1.712526449322309
21
1.431205026616818
31
0
0
LINE
8
2
62
4
10
2.0095492146741267
20
2.782082687421352
30
0
11
1.7278893717393013
21
2.782082687421352
31
0
0
LINE
8
2
62
4
10
2.027675049470529
20
4.057141411030285
30
0
11
1.742390039576423
21
4.057141411030285
31
0
0
LINE
8
2
62
4
10
2.0447835593307637
20
5.260636587405464
30
0
11
1.7560768474646111
21
5.260636587405464
31
0
0
LINE
8
2
62
4
10
2.0609318423161014
20
6.396584769822319
30
0
11
1.7689954738528815
21
6.396584769822319
31
0
0
LINE
8
2
62
4
10
2.0761737918198766
20
7.468777079743047
30
0
11
1.7811890334559015
21
7.468777079743047
31
0
0
LINE
8
2
62
4
10
2.0905602764316815
20
8.480791859332072
30
0
11
1.792698221145345
21
8.480791859332072
31
0
0
LINE
8
2
62
4
10
2.104139309706554
20
9.436006613840378
30
0
11
1.8035614477652435
21
9.436006613840378
31
0
0
LINE
8
2
62
4
10
2.1169562104057573
20
10.337609283715318
30
0
11
1.8138149683246054
21
10.337609283715318
31
0
0
LINE
8
2
62
4
10
2.1290537537439262
20
11.188608884055506
30
0
11
1.823493002995141
21
11.188608884055506
31
0
0
LINE
8
2
62
4
10
2.140472314147378
20
11.991845546918999
30
0
11
1.8326278513179022
21
11.991845546918999
31
0
0
LINE
8
2
62
4
10
2.1512499999999997
20
12.750000000000014
30
0
11
1.84125
21
12.750000000000014
31
0
0
LINE
8
2
62
4
10
2.161422780826443
20
13.465602513308422
30
0
11
1.8493882246611548
21
13.465602513308422
31
0
0
LINE
8
2
62
4
10
2.171024607337064
20
14.141041343710688
30
0
11
1.8570696858696512
21
14.141041343710688
31
0
0
LINE
8
2
62
4
10
2.1800875247352645
20
14.778570705515154
30
0
11
1.8643200197882115
21
14.778570705515154
31
0
0
LINE
8
2
62
4
10
2.188641779665382
20
15.380318293702743
30
0
11
1.8711634237323056
21
15.380318293702743
31
0
0
LINE
8
2
62
4
10
2.196715921158051
20
15.94829238491117
30
0
11
1.8776227369264409
21
15.94829238491117
31
0
0
LINE
8
2
62
4
10
2.2043368959099383
20
16.484388539871535
30
0
11
1.883719516727951
21
16.484388539871535
31
0
0
LINE
8
2
62
4
10
2.2115301382158408
20
16.990395929666047
30
0
11
1.889474110572673
21
16.990395929666047
31
0
0
LINE
8
2
62
4
10
2.2183196548532775
20
17.4680033069202
30
0
11
1.894905723882622
21
17.4680033069202
31
0
0
LINE
8
2
62
4
10
2.2247281052028787
20
17.91880464185767
30
0
11
1.900032484162303
21
17.91880464185767
31
0
0
LINE
8
2
62
4
10
2.230776876871963
20
18.344304442027763
30
0
11
1.9048715014975706
21
18.344304442027763
31
0
0
LINE
8
2
62
4
10
2.236486157073689
20
18.745922773459508
30
0
11
1.9094389256589512
21
18.745922773459508
31
0
0
LINE
8
2
62
4
10
2.241875
20
19.125000000000014
30
0
11
1.9137500000000003
21
19.125000000000014
31
0
0
LINE
8
2
62
4
10
1.73625
20
0
30
0
11
1.41625
21
0
31
0
0
LINE
8
2
62
4
10
1.7525264493223092
20
1.431205026616818
30
0
11
1.4243882246611546
21
1.431205026616818
31
0
0
LINE
8
2
62
4
10
1.7678893717393016
20
2.782082687421352
30
0
11
1.432069685869651
21
2.782082687421352
31
0
0
LINE
8
2
62
4
10
1.782390039576423
20
4.057141411030285
30
0
11
1.4393200197882112
21
4.057141411030285
31
0
0
LINE
8
2
62
4
10
1.7960768474646114
20
5.260636587405464
30
0
11
1.4461634237323056
21
5.260636587405464
31
0
0
LINE
8
2
62
4
10
1.8089954738528813
20
6.396584769822319
30
0
11
1.4526227369264408
21
6.396584769822319
31
0
0
LINE
8
2
62
4
10
1.8211890334559016
20
7.468777079743047
30
0
11
1.4587195167279505
21
7.468777079743047
31
0
0
LINE
8
2
62
4
10
1.8326982211453449
20
8.480791859332072
30
0
11
1.4644741105726722
21
8.480791859332072
31
0
0
LINE
8
2
62
4
10
1.8435614477652438
20
9.436006613840378
30
0
11
1.4699057238826219
21
9.436006613840378
31
0
0
LINE
8
2
62
4
10
1.8538149683246057
20
10.337609283715318
30
0
11
1.4750324841623028
21
10.337609283715318
31
0
0
LINE
8
2
62
4
10
1.8634930029951413
20
11.188608884055506
30
0
11
1.4798715014975703
21
11.188608884055506
31
0
0
LINE
8
2
62
4
10
1.8726278513179022
20
11.991845546918999
30
0
11
1.4844389256589512
21
11.991845546918999
31
0
0
LINE
8
2
62
4
10
1.8812500000000003
20
12.750000000000014
30
0
11
1.48875
21
12.750000000000014
31
0
0
LINE
8
2
62
4
10
1.8893882246611546
20
13.465602513308422
30
0
11
1.4928191123305772
21
13.465602513308422
31
0
0
LINE
8
2
62
4
10
1.897069685869651
20
14.141041343710688
30
0
11
1.4966598429348252
21
14.141041343710688
31
0
0
LINE
8
2
62
4
10
1.9043200197882117
20
14.778570705515154
30
0
11
1.5002850098941058
21
14.778570705515154
31
0
0
LINE
8
2
62
4
10
1.9111634237323059
20
15.380318293702743
30
0
11
1.503706711866153
21
15.380318293702743
31
0
0
LINE
8
2
62
4
10
1.917622736926441
20
15.94829238491117
30
0
11
1.5069363684632202
21
15.94829238491117
31
0
0
LINE
8
2
62
4
10
1.9237195167279506
20
16.484388539871535
30
0
11
1.5099847583639752
21
16.484388539871535
31
0
0
LINE
8
2
62
4
10
1.929474110572673
20
16.990395929666047
30
0
11
1.5128620552863363
21
16.990395929666047
31
0
0
LINE
8
2
62
4
10
1.9349057238826222
20
17.4680033069202
30
0
11
1.515577861941311
21
17.4680033069202
31
0
0
LINE
8
2
62
4
10
1.940032484162303
20
17.91880464185767
30
0
11
1.518141242081151
21
17.91880464185767
31
0
0
LINE
8
2
62
4
10
1.944871501497571
20
18.344304442027763
30
0
11
1.520560750748785
21
18.344304442027763
31
0
0
LINE
8
2
62
4
10
1.9494389256589515
20
18.745922773459508
30
0
11
1.5228444628294755
21
18.745922773459508
31
0
0
LINE
8
2
62
4
10
1.9537500000000008
20
19.125000000000014
30
0
11
1.5250000000000001
21
19.125000000000014
31
0
0
LINE
8
2
62
4
10
1.45625
20
0
30
0
11
1.13625
21
0
31
0
0
LINE
8
2
62
4
10
1.4643882246611544
20
1.431205026616818
30
0
11
1.13625
21
1.431205026616818
31
0
0
LINE
8
2
62
4
10
1.472069685869651
20
2.782082687421352
30
0
11
1.13625
21
2.782082687421352
31
0
0
LINE
8
2
62
4
10
1.4793200197882117
20
4.057141411030285
30
0
11
1.13625
21
4.057141411030285
31
0
0
LINE
8
2
62
4
10
1.4861634237323056
20
5.260636587405464
30
0
11
1.13625
21
5.260636587405464
31
0
0
LINE
8
2
62
4
10
1.4926227369264409
20
6.396584769822319
30
0
11
1.13625
21
6.396584769822319
31
0
0
LINE
8
2
62
4
10
1.4987195167279506
20
7.468777079743047
30
0
11
1.13625
21
7.468777079743047
31
0
0
LINE
8
2
62
4
10
1.5044741105726724
20
8.480791859332072
30
0
11
1.1362499999999998
21
8.480791859332072
31
0
0
LINE
8
2
62
4
10
1.5099057238826217
20
9.436006613840378
30
0
11
1.13625
21
9.436006613840378
31
0
0
LINE
8
2
62
4
10
1.5150324841623029
20
10.337609283715318
30
0
11
1.13625
21
10.337609283715318
31
0
0
LINE
8
2
62
4
10
1.5198715014975706
20
11.188608884055506
30
0
11
1.13625
21
11.188608884055506
31
0
0
LINE
8
2
62
4
10
1.524438925658951
20
11.991845546918999
30
0
11
1.13625
21
11.991845546918999
31
0
0
LINE
8
2
62
4
10
1.5287500000000003
20
12.750000000000014
30
0
11
1.13625
21
12.750000000000014
31
0
0
LINE
8
2
62
4
10
1.5328191123305772
20
13.465602513308422
30
0
11
1.1362499999999998
21
13.465602513308422
31
0
0
LINE
8
2
62
4
10
1.5366598429348253
20
14.141041343710688
30
0
11
1.13625
21
14.141041343710688
31
0
0
LINE
8
2
62
4
10
1.5402850098941057
20
14.778570705515154
30
0
11
1.13625
21
14.778570705515154
31
0
0
LINE
8
2
62
4
10
1.5437067118661532
20
15.380318293702743
30
0
11
1.1362500000000002
21
15.380318293702743
31
0
0
LINE
8
2
62
4
10
1.5469363684632205
20
15.94829238491117
30
0
11
1.1362500000000002
21
15.94829238491117
31
0
0
LINE
8
2
62
4
10
1.5499847583639754
20
16.484388539871535
30
0
11
1.1362500000000002
21
16.484388539871535
31
0
0
LINE
8
2
62
4
10
1.5528620552863364
20
16.990395929666047
30
0
11
1.13625
21
16.990395929666047
31
0
0
LINE
8
2
62
4
10
1.555577861941311
20
17.4680033069202
30
0
11
1.1362499999999998
21
17.4680033069202
31
0
0
LINE
8
2
62
4
10
1.5581412420811511
20
17.91880464185767
30
0
11
1.1362500000000002
21
17.91880464185767
31
0
0
LINE
8
2
62
4
10
1.560560750748785
20
18.344304442027763
30
0
11
1.13625
21
18.344304442027763
31
0
0
LINE
8
2
62
4
10
1.5628444628294755
20
18.745922773459508
30
0
11
1.13625
21
18.745922773459508
31
0
0
LINE
8
2
62
4
10
1.5650000000000004
20
19.125000000000014
30
0
11
1.13625
21
19.125000000000014
31
0
0
LINE
8
2
62
4
10
1.17625
20
0
30
0
11
0.85625
21
0
31
0
0
LINE
8
2
62
4
10
1.1762499999999998
20
1.431205026616818
30
0
11
0.8481117753388454
21
1.431205026616818
31
0
0
LINE
8
2
62
4
10
1.1762499999999998
20
2.782082687421352
30
0
11
0.8404303141303489
21
2.782082687421352
31
0
0
LINE
8
2
62
4
10
1.17625
20
4.057141411030285
30
0
11
0.8331799802117885
21
4.057141411030285
31
0
0
LINE
8
2
62
4
10
1.17625
20
5.260636587405464
30
0
11
0.8263365762676946
21
5.260636587405464
31
0
0
LINE
8
2
62
4
10
1.1762499999999998
20
6.396584769822319
30
0
11
0.8198772630735593
21
6.396584769822319
31
0
0
LINE
8
2
62
4
10
1.17625
20
7.468777079743047
30
0
11
0.8137804832720494
21
7.468777079743047
31
0
0
LINE
8
2
62
4
10
1.17625
20
8.480791859332072
30
0
11
0.8080258894273273
21
8.480791859332072
31
0
0
LINE
8
2
62
4
10
1.17625
20
9.436006613840378
30
0
11
0.8025942761173781
21
9.436006613840378
31
0
0
LINE
8
2
62
4
10
1.17625
20
10.337609283715318
30
0
11
0.7974675158376973
21
10.337609283715318
31
0
0
LINE
8
2
62
4
10
1.17625
20
11.188608884055506
30
0
11
0.7926284985024292
21
11.188608884055506
31
0
0
LINE
8
2
62
4
10
1.1762499999999996
20
11.991845546918999
30
0
11
0.7880610743410491
21
11.991845546918999
31
0
0
LINE
8
2
62
4
10
1.17625
20
12.750000000000014
30
0
11
0.7837499999999996
21
12.750000000000014
31
0
0
LINE
8
2
62
4
10
1.17625
20
13.465602513308422
30
0
11
0.7796808876694225
21
13.465602513308422
31
0
0
LINE
8
2
62
4
10
1.17625
20
14.141041343710688
30
0
11
0.7758401570651746
21
14.141041343710688
31
0
0
LINE
8
2
62
4
10
1.17625
20
14.778570705515154
30
0
11
0.7722149901058943
21
14.778570705515154
31
0
0
LINE
8
2
62
4
10
1.17625
20
15.380318293702743
30
0
11
0.7687932881338471
21
15.380318293702743
31
0
0
LINE
8
2
62
4
10
1.17625
20
15.94829238491117
30
0
11
0.7655636315367795
21
15.94829238491117
31
0
0
LINE
8
2
62
4
10
1.1762499999999998
20
16.484388539871535
30
0
11
0.7625152416360246
21
16.484388539871535
31
0
0
LINE
8
2
62
4
10
1.17625
20
16.990395929666047
30
0
11
0.7596379447136635
21
16.990395929666047
31
0
0
LINE
8
2
62
4
10
1.17625
20
17.4680033069202
30
0
11
0.7569221380586894
21
17.4680033069202
31
0
0
LINE
8
2
62
4
10
1.1762499999999998
20
17.91880464185767
30
0
11
0.7543587579188484
21
17.91880464185767
31
0
0
LINE
8
2
62
4
10
1.1762500000000005
20
18.344304442027763
30
0
11
0.7519392492512144
21
18.344304442027763
31
0
0
LINE
8
2
62
4
10
1.17625
20
18.745922773459508
30
0
11
0.7496555371705246
21
18.745922773459508
31
0
0
LINE
8
2
62
4
10
1.17625
20
19.125000000000014
30
0
11
0.7474999999999998
21
19.125000000000014
31
0
0
LINE
8
2
62
4
10
0.89625
20
0
30
0
11
0.57625
21
0
31
0
0
LINE
8
2
62
4
10
0.8881117753388454
20
1.431205026616818
30
0
11
0.5599735506776911
21
1.431205026616818
31
0
0
LINE
8
2
62
4
10
0.8804303141303492
20
2.782082687421352
30
0
11
0.5446106282606987
21
2.782082687421352
31
0
0
LINE
8
2
62
4
10
0.8731799802117887
20
4.057141411030285
30
0
11
0.5301099604235774
21
4.057141411030285
31
0
0
LINE
8
2
62
4
10
0.8663365762676947
20
5.260636587405464
30
0
11
0.5164231525353886
21
5.260636587405464
31
0
0
LINE
8
2
62
4
10
0.8598772630735594
20
6.396584769822319
30
0
11
0.5035045261471185
21
6.396584769822319
31
0
0
LINE
8
2
62
4
10
0.8537804832720495
20
7.468777079743047
30
0
11
0.4913109665440989
21
7.468777079743047
31
0
0
LINE
8
2
62
4
10
0.8480258894273272
20
8.480791859332072
30
0
11
0.4798017788546549
21
8.480791859332072
31
0
0
LINE
8
2
62
4
10
0.842594276117378
20
9.436006613840378
30
0
11
0.46893855223475656
21
9.436006613840378
31
0
0
LINE
8
2
62
4
10
0.8374675158376973
20
10.337609283715318
30
0
11
0.45868503167539443
21
10.337609283715318
31
0
0
LINE
8
2
62
4
10
0.8326284985024295
20
11.188608884055506
30
0
11
0.4490069970048587
21
11.188608884055506
31
0
0
LINE
8
2
62
4
10
0.8280610743410487
20
11.991845546918999
30
0
11
0.4398721486820977
21
11.991845546918999
31
0
0
LINE
8
2
62
4
10
0.82375
20
12.750000000000014
30
0
11
0.4312499999999999
21
12.750000000000014
31
0
0
LINE
8
2
62
4
10
0.8196808876694227
20
13.465602513308422
30
0
11
0.42311177533884525
21
13.465602513308422
31
0
0
LINE
8
2
62
4
10
0.8158401570651744
20
14.141041343710688
30
0
11
0.41543031413034914
21
14.141041343710688
31
0
0
LINE
8
2
62
4
10
0.8122149901058943
20
14.778570705515154
30
0
11
0.4081799802117886
21
14.778570705515154
31
0
0
LINE
8
2
62
4
10
0.8087932881338472
20
15.380318293702743
30
0
11
0.40133657626769426
21
15.380318293702743
31
0
0
LINE
8
2
62
4
10
0.8055636315367797
20
15.94829238491117
30
0
11
0.3948772630735592
21
15.94829238491117
31
0
0
LINE
8
2
62
4
10
0.8025152416360248
20
16.484388539871535
30
0
11
0.38878048327204917
21
16.484388539871535
31
0
0
LINE
8
2
62
4
10
0.7996379447136638
20
16.990395929666047
30
0
11
0.3830258894273272
21
16.990395929666047
31
0
0
LINE
8
2
62
4
10
0.7969221380586893
20
17.4680033069202
30
0
11
0.37759427611737806
21
17.4680033069202
31
0
0
LINE
8
2
62
4
10
0.7943587579188485
20
17.91880464185767
30
0
11
0.3724675158376969
21
17.91880464185767
31
0
0
LINE
8
2
62
4
10
0.791939249251215
20
18.344304442027763
30
0
11
0.3676284985024296
21
18.344304442027763
31
0
0
LINE
8
2
62
4
10
0.7896555371705243
20
18.745922773459508
30
0
11
0.36306107434104873
21
18.745922773459508
31
0
0
LINE
8
2
62
4
10
0.7875000000000003
20
19.125000000000014
30
0
11
0.3587499999999997
21
19.125000000000014
31
0
0
LINE
8
2
62
4
10
0.6162500000000001
20
0
30
0
11
0.3424999999999998
21
0
31
0
0
LINE
8
2
62
4
10
0.5999735506776909
20
1.431205026616818
30
0
11
0.3221544383471133
21
1.431205026616818
31
0
0
LINE
8
2
62
4
10
0.5846106282606984
20
2.782082687421352
30
0
11
0.30295078532587283
21
2.782082687421352
31
0
0
LINE
8
2
62
4
10
0.5701099604235773
20
4.057141411030285
30
0
11
0.2848249505294713
21
4.057141411030285
31
0
0
LINE
8
2
62
4
10
0.5564231525353891
20
5.260636587405464
30
0
11
0.26771644066923583
21
5.260636587405464
31
0
0
LINE
8
2
62
4
10
0.5435045261471187
20
6.396584769822319
30
0
11
0.2515681576838984
21
6.396584769822319
31
0
0
LINE
8
2
62
4
10
0.5313109665440989
20
7.468777079743047
30
0
11
0.2363262081801232
21
7.468777079743047
31
0
0
LINE
8
2
62
4
10
0.519801778854655
20
8.480791859332072
30
0
11
0.22193972356831895
21
8.480791859332072
31
0
0
LINE
8
2
62
4
10
0.5089385522347563
20
9.436006613840378
30
0
11
0.20836069029344564
21
9.436006613840378
31
0
0
LINE
8
2
62
4
10
0.49868503167539435
20
10.337609283715318
30
0
11
0.19554378959424293
21
10.337609283715318
31
0
0
LINE
8
2
62
4
10
0.48900699700485895
20
11.188608884055506
30
0
11
0.18344624625607356
21
11.188608884055506
31
0
0
LINE
8
2
62
4
10
0.4798721486820976
20
11.991845546918999
30
0
11
0.172027685852622
21
11.991845546918999
31
0
0
LINE
8
2
62
4
10
0.47124999999999995
20
12.750000000000014
30
0
11
0.1612499999999997
21
12.750000000000014
31
0
0
LINE
8
2
62
4
10
0.4631117753388454
20
13.465602513308422
30
0
11
0.1510772191735568
21
13.465602513308422
31
0
0
LINE
8
2
62
4
10
0.4554303141303495
20
14.141041343710688
30
0
11
0.1414753926629362
21
14.141041343710688
31
0
0
LINE
8
2
62
4
10
0.4481799802117885
20
14.778570705515154
30
0
11
0.13241247526473557
21
14.778570705515154
31
0
0
LINE
8
2
62
4
10
0.44133657626769485
20
15.380318293702743
30
0
11
0.1238582203346177
21
15.380318293702743
31
0
0
LINE
8
2
62
4
10
0.43487726307355934
20
15.94829238491117
30
0
11
0.11578407884194909
21
15.94829238491117
31
0
0
LINE
8
2
62
4
10
0.428780483272049
20
16.484388539871535
30
0
11
0.10816310409006148
21
16.484388539871535
31
0
0
LINE
8
2
62
4
10
0.42302588942732733
20
16.990395929666047
30
0
11
0.10096986178415902
21
16.990395929666047
31
0
0
LINE
8
2
62
4
10
0.41759427611737787
20
17.4680033069202
30
0
11
0.0941803451467227
21
17.4680033069202
31
0
0
LINE
8
2
62
4
10
0.41246751583769736
20
17.91880464185767
30
0
11
0.08777189479712134
21
17.91880464185767
31
0
0
LINE
8
2
62
4
10
0.40762849850242966
20
18.344304442027763
30
0
11
0.08172312312803666
21
18.344304442027763
31
0
0
LINE
8
2
62
4
10
0.40306107434104876
20
18.745922773459508
30
0
11
0.07601384292631087
21
18.745922773459508
31
0
0
LINE
8
2
62
4
10
0.39875000000000016
20
19.125000000000014
30
0
11
0.07062499999999973
21
19.125000000000014
31
0
0
ENDSEC
0
EOF
