999
DXF created by FretFind2D
0
SECTION
2
ENTITIES
0
LINE
8
2
62
4
10
1.88976
20
0
30
0
11
2.24996
21
26
31
0
0
LINE
8
2
62
4
10
1.60866
20
0
30
0
11
1.82478
21
26
31
0
0
LINE
8
2
62
4
10
1.32756
20
0
30
0
11
1.3996000000000002
21
26
31
0
0
LINE
8
2
62
4
10
1.04646
20
0
30
0
11
0.9744200000000003
21
26
31
0
0
LINE
8
2
62
4
10
0.76536
20
0
30
0
11
0.5492400000000002
21
26
31
0
0
LINE
8
2
62
4
10
0.48426000000000013
20
0
30
0
11
0.12406000000000006
21
26
31
0
0
LINE
8
2
62
4
10
2.01382
20
0
30
0
11
2.3740200000000002
21
26
31
0
0
LINE
8
2
62
4
10
0.3602000000000001
20
0
30
0
11
0
21
26
31
0
0
LINE
8
2
62
4
10
2.03382
20
0
30
0
11
1.7292100000000001
21
0
31
0
0
LINE
8
2
62
4
10
2.054036472572054
20
1.4592678702759712
30
0
11
1.7453831780576434
21
1.4592678702759712
31
0
0
LINE
8
2
62
4
10
2.0731182817258498
20
2.8366333283511818
30
0
11
1.7606486253806801
21
2.8366333283511818
31
0
0
LINE
8
2
62
4
10
2.091129111225612
20
4.136693203403427
30
0
11
1.77505728898049
21
4.136693203403427
31
0
0
LINE
8
2
62
4
10
2.1081290705405276
20
5.363786324413413
30
0
11
1.7886572564324221
21
5.363786324413413
31
0
0
LINE
8
2
62
4
10
2.1241748954545097
20
6.522008000603147
30
0
11
1.8014939163636081
21
6.522008000603147
31
0
0
LINE
8
2
62
4
10
2.139320137416606
20
7.615223689149772
30
0
11
1.8136101099332846
21
7.615223689149772
31
0
0
LINE
8
2
62
4
10
2.153615342263977
20
8.647081895789562
30
0
11
1.8250462738111817
21
8.647081895789562
31
0
0
LINE
8
2
62
4
10
2.1671082189139335
20
9.621026351366659
30
0
11
1.835840575131147
21
9.621026351366659
31
0
0
LINE
8
2
62
4
10
2.1798437985880104
20
10.540307504964638
30
0
11
1.8460290388704081
21
10.540307504964638
31
0
0
LINE
8
2
62
4
10
2.191864585099482
20
11.407993371978163
30
0
11
1.8556456680795859
21
11.407993371978163
31
0
0
LINE
8
2
62
4
10
2.203210696705891
20
12.226979773329173
30
0
11
1.864722557364713
21
12.226979773329173
31
0
0
LINE
8
2
62
4
10
2.2139200000000003
20
13.000000000000012
30
0
11
1.8732900000000003
21
13.000000000000012
31
0
0
LINE
8
2
62
4
10
2.2240282362860273
20
13.729633935137997
30
0
11
1.8813765890288219
21
13.729633935137997
31
0
0
LINE
8
2
62
4
10
2.2335691408629246
20
14.418316664175602
30
0
11
1.8890093126903402
21
14.418316664175602
31
0
0
LINE
8
2
62
4
10
2.2425745556128063
20
15.068346601701725
30
0
11
1.896213644490245
21
15.068346601701725
31
0
0
LINE
8
2
62
4
10
2.251074535270264
20
15.681893162206718
30
0
11
1.9030136282162111
21
15.681893162206718
31
0
0
LINE
8
2
62
4
10
2.2590974477272554
20
16.261004000301586
30
0
11
1.9094319581818042
21
16.261004000301586
31
0
0
LINE
8
2
62
4
10
2.266670068708303
20
16.807611844574897
30
0
11
1.9154900549666425
21
16.807611844574897
31
0
0
LINE
8
2
62
4
10
2.273817671131989
20
17.32354094789479
30
0
11
1.9212081369055911
21
17.32354094789479
31
0
0
LINE
8
2
62
4
10
2.2805641094569666
20
17.81051317568334
30
0
11
1.9266052875655737
21
17.81051317568334
31
0
0
LINE
8
2
62
4
10
2.286931899294005
20
18.27015375248233
30
0
11
1.9316995194352042
21
18.27015375248233
31
0
0
LINE
8
2
62
4
10
2.2929422925497414
20
18.703996685989093
30
0
11
1.9365078340397932
21
18.703996685989093
31
0
0
LINE
8
2
62
4
10
2.298615348352946
20
19.1134898866646
30
0
11
1.941046278682357
21
19.1134898866646
31
0
0
LINE
8
2
62
4
10
2.30397
20
19.500000000000018
30
0
11
1.9453300000000002
21
19.500000000000018
31
0
0
LINE
8
2
62
4
10
1.7692100000000002
20
0
30
0
11
1.44811
21
0
31
0
0
LINE
8
2
62
4
10
1.7853831780576435
20
1.4592678702759712
30
0
11
1.4561965890288218
21
1.4592678702759712
31
0
0
LINE
8
2
62
4
10
1.80064862538068
20
2.8366333283511818
30
0
11
1.4638293126903401
21
2.8366333283511818
31
0
0
LINE
8
2
62
4
10
1.8150572889804903
20
4.136693203403427
30
0
11
1.4710336444902448
21
4.136693203403427
31
0
0
LINE
8
2
62
4
10
1.828657256432422
20
5.363786324413413
30
0
11
1.4778336282162108
21
5.363786324413413
31
0
0
LINE
8
2
62
4
10
1.841493916363608
20
6.522008000603147
30
0
11
1.484251958181804
21
6.522008000603147
31
0
0
LINE
8
2
62
4
10
1.8536101099332847
20
7.615223689149772
30
0
11
1.4903100549666424
21
7.615223689149772
31
0
0
LINE
8
2
62
4
10
1.8650462738111822
20
8.647081895789562
30
0
11
1.4960281369055908
21
8.647081895789562
31
0
0
LINE
8
2
62
4
10
1.8758405751311469
20
9.621026351366659
30
0
11
1.5014252875655734
21
9.621026351366659
31
0
0
LINE
8
2
62
4
10
1.8860290388704082
20
10.540307504964638
30
0
11
1.5065195194352041
21
10.540307504964638
31
0
0
LINE
8
2
62
4
10
1.8956456680795861
20
11.407993371978163
30
0
11
1.5113278340397927
21
11.407993371978163
31
0
0
LINE
8
2
62
4
10
1.9047225573647133
20
12.226979773329173
30
0
11
1.5158662786823565
21
12.226979773329173
31
0
0
LINE
8
2
62
4
10
1.9132900000000006
20
13.000000000000012
30
0
11
1.5201500000000001
21
13.000000000000012
31
0
0
LINE
8
2
62
4
10
1.9213765890288217
20
13.729633935137997
30
0
11
1.524193294514411
21
13.729633935137997
31
0
0
LINE
8
2
62
4
10
1.9290093126903405
20
14.418316664175602
30
0
11
1.5280096563451702
21
14.418316664175602
31
0
0
LINE
8
2
62
4
10
1.9362136444902454
20
15.068346601701725
30
0
11
1.5316118222451225
21
15.068346601701725
31
0
0
LINE
8
2
62
4
10
1.9430136282162112
20
15.681893162206718
30
0
11
1.5350118141081055
21
15.681893162206718
31
0
0
LINE
8
2
62
4
10
1.9494319581818038
20
16.261004000301586
30
0
11
1.5382209790909023
21
16.261004000301586
31
0
0
LINE
8
2
62
4
10
1.9554900549666427
20
16.807611844574897
30
0
11
1.5412500274833214
21
16.807611844574897
31
0
0
LINE
8
2
62
4
10
1.961208136905591
20
17.32354094789479
30
0
11
1.5441090684527954
21
17.32354094789479
31
0
0
LINE
8
2
62
4
10
1.9666052875655735
20
17.81051317568334
30
0
11
1.546807643782787
21
17.81051317568334
31
0
0
LINE
8
2
62
4
10
1.9716995194352043
20
18.27015375248233
30
0
11
1.549354759717602
21
18.27015375248233
31
0
0
LINE
8
2
62
4
10
1.9765078340397935
20
18.703996685989093
30
0
11
1.5517589170198967
21
18.703996685989093
31
0
0
LINE
8
2
62
4
10
1.981046278682357
20
19.1134898866646
30
0
11
1.5540281393411781
21
19.1134898866646
31
0
0
LINE
8
2
62
4
10
1.9853300000000005
20
19.500000000000018
30
0
11
1.55617
21
19.500000000000018
31
0
0
LINE
8
2
62
4
10
1.48811
20
0
30
0
11
1.1670099999999999
21
0
31
0
0
LINE
8
2
62
4
10
1.496196589028822
20
1.4592678702759712
30
0
11
1.1670099999999999
21
1.4592678702759712
31
0
0
LINE
8
2
62
4
10
1.5038293126903401
20
2.8366333283511818
30
0
11
1.1670099999999999
21
2.8366333283511818
31
0
0
LINE
8
2
62
4
10
1.5110336444902448
20
4.136693203403427
30
0
11
1.1670099999999999
21
4.136693203403427
31
0
0
LINE
8
2
62
4
10
1.5178336282162106
20
5.363786324413413
30
0
11
1.1670099999999999
21
5.363786324413413
31
0
0
LINE
8
2
62
4
10
1.5242519581818037
20
6.522008000603147
30
0
11
1.1670099999999999
21
6.522008000603147
31
0
0
LINE
8
2
62
4
10
1.530310054966642
20
7.615223689149772
30
0
11
1.16701
21
7.615223689149772
31
0
0
LINE
8
2
62
4
10
1.5360281369055908
20
8.647081895789562
30
0
11
1.16701
21
8.647081895789562
31
0
0
LINE
8
2
62
4
10
1.5414252875655734
20
9.621026351366659
30
0
11
1.16701
21
9.621026351366659
31
0
0
LINE
8
2
62
4
10
1.5465195194352042
20
10.540307504964638
30
0
11
1.1670100000000003
21
10.540307504964638
31
0
0
LINE
8
2
62
4
10
1.5513278340397925
20
11.407993371978163
30
0
11
1.1670100000000003
21
11.407993371978163
31
0
0
LINE
8
2
62
4
10
1.5558662786823565
20
12.226979773329173
30
0
11
1.16701
21
12.226979773329173
31
0
0
LINE
8
2
62
4
10
1.5601500000000004
20
13.000000000000012
30
0
11
1.16701
21
13.000000000000012
31
0
0
LINE
8
2
62
4
10
1.5641932945144108
20
13.729633935137997
30
0
11
1.1670100000000003
21
13.729633935137997
31
0
0
LINE
8
2
62
4
10
1.56800965634517
20
14.418316664175602
30
0
11
1.1670100000000003
21
14.418316664175602
31
0
0
LINE
8
2
62
4
10
1.5716118222451225
20
15.068346601701725
30
0
11
1.16701
21
15.068346601701725
31
0
0
LINE
8
2
62
4
10
1.5750118141081058
20
15.681893162206718
30
0
11
1.16701
21
15.681893162206718
31
0
0
LINE
8
2
62
4
10
1.5782209790909019
20
16.261004000301586
30
0
11
1.1670100000000003
21
16.261004000301586
31
0
0
LINE
8
2
62
4
10
1.5812500274833212
20
16.807611844574897
30
0
11
1.1670100000000003
21
16.807611844574897
31
0
0
LINE
8
2
62
4
10
1.5841090684527954
20
17.32354094789479
30
0
11
1.16701
21
17.32354094789479
31
0
0
LINE
8
2
62
4
10
1.586807643782787
20
17.81051317568334
30
0
11
1.16701
21
17.81051317568334
31
0
0
LINE
8
2
62
4
10
1.5893547597176023
20
18.27015375248233
30
0
11
1.1670100000000003
21
18.27015375248233
31
0
0
LINE
8
2
62
4
10
1.5917589170198967
20
18.703996685989093
30
0
11
1.1670100000000003
21
18.703996685989093
31
0
0
LINE
8
2
62
4
10
1.5940281393411786
20
19.1134898866646
30
0
11
1.16701
21
19.1134898866646
31
0
0
LINE
8
2
62
4
10
1.5961700000000003
20
19.500000000000018
30
0
11
1.16701
21
19.500000000000018
31
0
0
LINE
8
2
62
4
10
1.20701
20
0
30
0
11
0.88591
21
0
31
0
0
LINE
8
2
62
4
10
1.2070100000000001
20
1.4592678702759712
30
0
11
0.8778234109711784
21
1.4592678702759712
31
0
0
LINE
8
2
62
4
10
1.20701
20
2.8366333283511818
30
0
11
0.8701906873096603
21
2.8366333283511818
31
0
0
LINE
8
2
62
4
10
1.2070100000000001
20
4.136693203403427
30
0
11
0.8629863555097554
21
4.136693203403427
31
0
0
LINE
8
2
62
4
10
1.20701
20
5.363786324413413
30
0
11
0.8561863717837892
21
5.363786324413413
31
0
0
LINE
8
2
62
4
10
1.20701
20
6.522008000603147
30
0
11
0.8497680418181961
21
6.522008000603147
31
0
0
LINE
8
2
62
4
10
1.20701
20
7.615223689149772
30
0
11
0.8437099450333578
21
7.615223689149772
31
0
0
LINE
8
2
62
4
10
1.2070100000000004
20
8.647081895789562
30
0
11
0.8379918630944094
21
8.647081895789562
31
0
0
LINE
8
2
62
4
10
1.2070100000000004
20
9.621026351366659
30
0
11
0.8325947124344266
21
9.621026351366659
31
0
0
LINE
8
2
62
4
10
1.2070100000000001
20
10.540307504964638
30
0
11
0.8275004805647961
21
10.540307504964638
31
0
0
LINE
8
2
62
4
10
1.2070100000000004
20
11.407993371978163
30
0
11
0.8226921659602073
21
11.407993371978163
31
0
0
LINE
8
2
62
4
10
1.2070100000000004
20
12.226979773329173
30
0
11
0.8181537213176435
21
12.226979773329173
31
0
0
LINE
8
2
62
4
10
1.2070100000000004
20
13.000000000000012
30
0
11
0.8138700000000001
21
13.000000000000012
31
0
0
LINE
8
2
62
4
10
1.2070100000000001
20
13.729633935137997
30
0
11
0.8098267054855894
21
13.729633935137997
31
0
0
LINE
8
2
62
4
10
1.2070100000000001
20
14.418316664175602
30
0
11
0.8060103436548298
21
14.418316664175602
31
0
0
LINE
8
2
62
4
10
1.2070100000000006
20
15.068346601701725
30
0
11
0.8024081777548777
21
15.068346601701725
31
0
0
LINE
8
2
62
4
10
1.2070100000000001
20
15.681893162206718
30
0
11
0.7990081858918945
21
15.681893162206718
31
0
0
LINE
8
2
62
4
10
1.20701
20
16.261004000301586
30
0
11
0.7957990209090982
21
16.261004000301586
31
0
0
LINE
8
2
62
4
10
1.2070100000000001
20
16.807611844574897
30
0
11
0.7927699725166792
21
16.807611844574897
31
0
0
LINE
8
2
62
4
10
1.2070100000000004
20
17.32354094789479
30
0
11
0.7899109315472047
21
17.32354094789479
31
0
0
LINE
8
2
62
4
10
1.2070100000000004
20
17.81051317568334
30
0
11
0.7872123562172134
21
17.81051317568334
31
0
0
LINE
8
2
62
4
10
1.2070100000000004
20
18.27015375248233
30
0
11
0.784665240282398
21
18.27015375248233
31
0
0
LINE
8
2
62
4
10
1.2070100000000001
20
18.703996685989093
30
0
11
0.7822610829801038
21
18.703996685989093
31
0
0
LINE
8
2
62
4
10
1.2070100000000001
20
19.1134898866646
30
0
11
0.7799918606588216
21
19.1134898866646
31
0
0
LINE
8
2
62
4
10
1.20701
20
19.500000000000018
30
0
11
0.7778499999999998
21
19.500000000000018
31
0
0
LINE
8
2
62
4
10
0.92591
20
0
30
0
11
0.6048100000000001
21
0
31
0
0
LINE
8
2
62
4
10
0.9178234109711783
20
1.4592678702759712
30
0
11
0.588636821942357
21
1.4592678702759712
31
0
0
LINE
8
2
62
4
10
0.9101906873096601
20
2.8366333283511818
30
0
11
0.5733713746193203
21
2.8366333283511818
31
0
0
LINE
8
2
62
4
10
0.9029863555097554
20
4.136693203403427
30
0
11
0.5589627110195102
21
4.136693203403427
31
0
0
LINE
8
2
62
4
10
0.896186371783789
20
5.363786324413413
30
0
11
0.5453627435675785
21
5.363786324413413
31
0
0
LINE
8
2
62
4
10
0.8897680418181961
20
6.522008000603147
30
0
11
0.5325260836363923
21
6.522008000603147
31
0
0
LINE
8
2
62
4
10
0.8837099450333578
20
7.615223689149772
30
0
11
0.5204098900667155
21
7.615223689149772
31
0
0
LINE
8
2
62
4
10
0.8779918630944097
20
8.647081895789562
30
0
11
0.5089737261888185
21
8.647081895789562
31
0
0
LINE
8
2
62
4
10
0.8725947124344267
20
9.621026351366659
30
0
11
0.49817942486885336
21
9.621026351366659
31
0
0
LINE
8
2
62
4
10
0.8675004805647961
20
10.540307504964638
30
0
11
0.48799096112959206
21
10.540307504964638
31
0
0
LINE
8
2
62
4
10
0.8626921659602073
20
11.407993371978163
30
0
11
0.47837433192041423
21
11.407993371978163
31
0
0
LINE
8
2
62
4
10
0.8581537213176436
20
12.226979773329173
30
0
11
0.46929744263528717
21
12.226979773329173
31
0
0
LINE
8
2
62
4
10
0.8538700000000005
20
13.000000000000012
30
0
11
0.46073
21
13.000000000000012
31
0
0
LINE
8
2
62
4
10
0.849826705485589
20
13.729633935137997
30
0
11
0.45264341097117855
21
13.729633935137997
31
0
0
LINE
8
2
62
4
10
0.8460103436548305
20
14.418316664175602
30
0
11
0.4450106873096602
21
14.418316664175602
31
0
0
LINE
8
2
62
4
10
0.842408177754878
20
15.068346601701725
30
0
11
0.4378063555097551
21
15.068346601701725
31
0
0
LINE
8
2
62
4
10
0.8390081858918947
20
15.681893162206718
30
0
11
0.43100637178378887
21
15.681893162206718
31
0
0
LINE
8
2
62
4
10
0.8357990209090982
20
16.261004000301586
30
0
11
0.4245880418181962
21
16.261004000301586
31
0
0
LINE
8
2
62
4
10
0.8327699725166793
20
16.807611844574897
30
0
11
0.41852994503335794
21
16.807611844574897
31
0
0
LINE
8
2
62
4
10
0.8299109315472049
20
17.32354094789479
30
0
11
0.4128118630944093
21
17.32354094789479
31
0
0
LINE
8
2
62
4
10
0.8272123562172136
20
17.81051317568334
30
0
11
0.40741471243442673
21
17.81051317568334
31
0
0
LINE
8
2
62
4
10
0.8246652402823982
20
18.27015375248233
30
0
11
0.40232048056479597
21
18.27015375248233
31
0
0
LINE
8
2
62
4
10
0.822261082980104
20
18.703996685989093
30
0
11
0.3975121659602072
21
18.703996685989093
31
0
0
LINE
8
2
62
4
10
0.8199918606588217
20
19.1134898866646
30
0
11
0.39297372131764385
21
19.1134898866646
31
0
0
LINE
8
2
62
4
10
0.8178500000000002
20
19.500000000000018
30
0
11
0.38868999999999976
21
19.500000000000018
31
0
0
LINE
8
2
62
4
10
0.6448100000000001
20
0
30
0
11
0.34020000000000006
21
0
31
0
0
LINE
8
2
62
4
10
0.6286368219423573
20
1.4592678702759712
30
0
11
0.3199835274279461
21
1.4592678702759712
31
0
0
LINE
8
2
62
4
10
0.6133713746193203
20
2.8366333283511818
30
0
11
0.30090171827415024
21
2.8366333283511818
31
0
0
LINE
8
2
62
4
10
0.5989627110195102
20
4.136693203403427
30
0
11
0.28289088877438795
21
4.136693203403427
31
0
0
LINE
8
2
62
4
10
0.5853627435675786
20
5.363786324413413
30
0
11
0.2658909294594727
21
5.363786324413413
31
0
0
LINE
8
2
62
4
10
0.5725260836363926
20
6.522008000603147
30
0
11
0.2498451045454904
21
6.522008000603147
31
0
0
LINE
8
2
62
4
10
0.5604098900667158
20
7.615223689149772
30
0
11
0.2346998625833945
21
7.615223689149772
31
0
0
LINE
8
2
62
4
10
0.5489737261888188
20
8.647081895789562
30
0
11
0.22040465773602305
21
8.647081895789562
31
0
0
LINE
8
2
62
4
10
0.5381794248688532
20
9.621026351366659
30
0
11
0.2069117810860666
21
9.621026351366659
31
0
0
LINE
8
2
62
4
10
0.5279909611295921
20
10.540307504964638
30
0
11
0.1941762014119899
21
10.540307504964638
31
0
0
LINE
8
2
62
4
10
0.5183743319204144
20
11.407993371978163
30
0
11
0.18215541490051804
21
11.407993371978163
31
0
0
LINE
8
2
62
4
10
0.5092974426352874
20
12.226979773329173
30
0
11
0.17080930329410896
21
12.226979773329173
31
0
0
LINE
8
2
62
4
10
0.5007300000000001
20
13.000000000000012
30
0
11
0.16009999999999994
21
13.000000000000012
31
0
0
LINE
8
2
62
4
10
0.4926434109711786
20
13.729633935137997
30
0
11
0.14999176371397296
21
13.729633935137997
31
0
0
LINE
8
2
62
4
10
0.48501068730966
20
14.418316664175602
30
0
11
0.14045085913707503
21
14.418316664175602
31
0
0
LINE
8
2
62
4
10
0.47780635550975536
20
15.068346601701725
30
0
11
0.13144544438719377
21
15.068346601701725
31
0
0
LINE
8
2
62
4
10
0.4710063717837889
20
15.681893162206718
30
0
11
0.12294546472973612
21
15.681893162206718
31
0
0
LINE
8
2
62
4
10
0.46458804181819646
20
16.261004000301586
30
0
11
0.11492255227274507
21
16.261004000301586
31
0
0
LINE
8
2
62
4
10
0.45852994503335753
20
16.807611844574897
30
0
11
0.10734993129169702
21
16.807611844574897
31
0
0
LINE
8
2
62
4
10
0.45281186309440913
20
17.32354094789479
30
0
11
0.10020232886801163
21
17.32354094789479
31
0
0
LINE
8
2
62
4
10
0.447414712434427
20
17.81051317568334
30
0
11
0.09345589054303317
21
17.81051317568334
31
0
0
LINE
8
2
62
4
10
0.442320480564796
20
18.27015375248233
30
0
11
0.08708810070599494
21
18.27015375248233
31
0
0
LINE
8
2
62
4
10
0.43751216596020703
20
18.703996685989093
30
0
11
0.0810777074502589
21
18.703996685989093
31
0
0
LINE
8
2
62
4
10
0.43297372131764345
20
19.1134898866646
30
0
11
0.07540465164705436
21
19.1134898866646
31
0
0
LINE
8
2
62
4
10
0.42869000000000024
20
19.500000000000018
30
0
11
0.07004999999999996
21
19.500000000000018
31
0
0
ENDSEC
0
EOF
